<svg width="35" height="21" viewBox="0 0 35 21" fill="none" xmlns="http://www.w3.org/2000/svg">
<rect x="0.51001" y="0.689941" width="33.56" height="19.58" fill="#3C9242"/>
<path d="M5.67993 10.4801L17.2899 17.8901L28.8999 10.4801L17.2899 3.06006L5.67993 10.4801Z" fill="#EDC226"/>
<path d="M22.1799 10.47C22.1799 13.1706 19.9906 15.36 17.2899 15.36C14.5892 15.36 12.3999 13.1706 12.3999 10.47C12.3999 7.76928 14.5892 5.57996 17.2899 5.57996C18.5868 5.57996 19.8306 6.09515 20.7477 7.0122C21.6647 7.92926 22.1799 9.17305 22.1799 10.47Z" fill="#2D146E"/>
<path d="M14.49 8.38005C13.9279 8.3795 13.3664 8.4196 12.81 8.50005C12.7041 8.73953 12.6172 8.98695 12.55 9.24005C13.1909 9.13096 13.84 9.07743 14.49 9.08005C17.262 9.06581 19.9397 10.0855 22 11.94C22.0826 11.6864 22.1395 11.4251 22.17 11.16C20.0331 9.35763 17.3256 8.37245 14.53 8.38005" fill="white"/>
<path fill-rule="evenodd" clip-rule="evenodd" d="M13.11 9.00003C13.168 8.99284 13.2204 8.96178 13.2545 8.91433C13.2887 8.86688 13.3015 8.80734 13.29 8.75003C13.2874 8.69166 13.2617 8.63672 13.2185 8.59733C13.1754 8.55793 13.1183 8.53732 13.06 8.54003C13.0011 8.54972 12.9488 8.58287 12.9149 8.63188C12.8809 8.68089 12.8683 8.74157 12.88 8.80003C12.8824 8.85762 12.9085 8.91165 12.952 8.94947C12.9955 8.98729 13.0526 9.00558 13.11 9.00003ZM13.11 8.92003C13.1809 8.90082 13.2274 8.8331 13.22 8.76003C13.2351 8.70698 13.2151 8.65014 13.1701 8.61825C13.1251 8.58635 13.0648 8.58635 13.0198 8.61825C12.9748 8.65014 12.9548 8.70698 12.97 8.76003C12.9752 8.83342 13.0364 8.89022 13.11 8.89003" fill="#3C9242"/>
<path fill-rule="evenodd" clip-rule="evenodd" d="M13.49 8.99997H13.58V8.81997H13.77C13.8465 8.80538 13.9013 8.73784 13.9 8.65997C13.8896 8.58105 13.8194 8.52398 13.74 8.52997H13.47L13.49 8.99997ZM13.56 8.73997H13.74C13.7688 8.72835 13.7883 8.70104 13.79 8.66997H13.61L13.56 8.73997Z" fill="#3C9242"/>
<path d="M13.89 9.00002C13.89 8.94002 13.89 8.79002 13.77 8.80002H13.65C13.79 8.80002 13.8 8.93002 13.81 9.00002" fill="#3C9242"/>
<path fill-rule="evenodd" clip-rule="evenodd" d="M14.0901 9.00003H14.3001C14.354 9.00295 14.4065 8.98282 14.4447 8.94466C14.4829 8.9065 14.503 8.85391 14.5001 8.80003V8.73003C14.4947 8.61797 14.4023 8.5299 14.2901 8.53003H14.0801L14.0901 9.00003ZM14.1701 8.91003H14.2901C14.3236 8.91283 14.3568 8.90144 14.3815 8.87862C14.4062 8.85581 14.4202 8.82367 14.4201 8.79003V8.70003C14.4148 8.63216 14.3581 8.57983 14.2901 8.58003H14.1601L14.1701 8.91003Z" fill="#3C9242"/>
<path d="M14.67 8.95998L15.09 8.96998L15.1 8.88998L14.76 8.87998V8.75998H15.03V8.68998L14.77 8.67998V8.57998L15.09 8.58998V8.50998L14.69 8.48998L14.67 8.95998Z" fill="#3C9242"/>
<path d="M15.27 8.98002L15.35 8.99002L15.38 8.67002L15.44 9.00002L15.51 9.01002L15.63 8.70002L15.6 9.01002L15.68 9.02002L15.73 8.56002L15.61 8.55002L15.49 8.86002L15.42 8.53002L15.31 8.52002L15.27 8.98002Z" fill="#3C9242"/>
<path d="M16.2301 9.09004L16.5801 9.15004L16.5901 9.07004L16.3301 9.03004L16.3401 8.92004L16.5601 8.96004L16.5701 8.88004L16.3601 8.85004L16.3701 8.77004L16.6301 8.82004L16.6401 8.74004L16.3001 8.68004L16.2301 9.09004Z" fill="#3C9242"/>
<path fill-rule="evenodd" clip-rule="evenodd" d="M17.1201 9.27005H17.2001V9.10005L17.3701 9.15005C17.4219 9.16434 17.4774 9.14991 17.5157 9.11219C17.554 9.07447 17.5692 9.0192 17.5557 8.96719C17.5422 8.91518 17.5019 8.87434 17.4501 8.86005L17.1901 8.80005L17.1201 9.27005ZM17.2701 9.04005H17.4401C17.461 9.05507 17.4892 9.05507 17.5101 9.04005V8.97005L17.3401 8.92005L17.2701 9.04005Z" fill="#3C9242"/>
<path fill-rule="evenodd" clip-rule="evenodd" d="M17.6899 9.42H17.7699L17.8299 9.26L17.9999 9.32C18.0796 9.34042 18.1617 9.29719 18.1899 9.22C18.2022 9.18286 18.1984 9.14228 18.1794 9.10808C18.1604 9.07389 18.128 9.0492 18.0899 9.04L17.8299 9L17.6899 9.42ZM17.8499 9.2L18.0199 9.25C18.0427 9.27037 18.0772 9.27037 18.0999 9.25C18.115 9.22908 18.115 9.20092 18.0999 9.18L17.9299 9.12L17.8499 9.2Z" fill="#3C9242"/>
<path d="M18.0701 9.54005C18.0701 9.47005 18.1301 9.34005 18.0701 9.31005H17.9501C18.0801 9.31005 18.0401 9.49005 18.0201 9.55005" fill="#3C9242"/>
<path fill-rule="evenodd" clip-rule="evenodd" d="M18.45 9.68006C18.5678 9.70781 18.6878 9.64351 18.73 9.53006C18.7567 9.45861 18.7434 9.37829 18.6949 9.31935C18.6464 9.26042 18.5702 9.23183 18.4949 9.24435C18.4196 9.25688 18.3567 9.30861 18.33 9.38006C18.2866 9.49604 18.3385 9.62599 18.45 9.68006ZM18.45 9.59006C18.4844 9.60248 18.5225 9.59979 18.5549 9.58265C18.5872 9.56552 18.6109 9.53553 18.62 9.50006C18.6365 9.46717 18.6383 9.4288 18.625 9.39449C18.6117 9.36017 18.5844 9.33312 18.55 9.32006C18.479 9.305 18.4074 9.34289 18.38 9.41006C18.3515 9.47913 18.3823 9.55833 18.45 9.59006Z" fill="#3C9242"/>
<path fill-rule="evenodd" clip-rule="evenodd" d="M18.9999 9.89995C19.1152 9.93154 19.2367 9.87706 19.2899 9.76995C19.3348 9.65653 19.2875 9.52746 19.1799 9.46995C19.1257 9.44761 19.0646 9.44894 19.0114 9.47363C18.9582 9.49832 18.9178 9.54412 18.8999 9.59995C18.8723 9.65282 18.8674 9.7146 18.8863 9.77115C18.9051 9.8277 18.9461 9.87418 18.9999 9.89995ZM18.9999 9.81995C19.0705 9.83755 19.1436 9.80186 19.1732 9.73532C19.2028 9.66878 19.1803 9.59061 19.1199 9.54995C19.0868 9.5372 19.0499 9.53853 19.0178 9.55363C18.9857 9.56874 18.9612 9.59631 18.9499 9.62995C18.917 9.69691 18.9383 9.77786 18.9999 9.81995Z" fill="#3C9242"/>
<path d="M19.1199 9.70001L19.2799 9.77001L19.2499 9.83001L19.0999 9.76001L19.1199 9.70001Z" fill="#3C9242"/>
<path d="M19.2201 9.73999L19.2801 9.76999L19.1901 9.97999L19.1301 9.94999L19.2201 9.73999Z" fill="#3C9242"/>
<path fill-rule="evenodd" clip-rule="evenodd" d="M19.3501 10.05H19.4301L19.5001 9.89998L19.6701 9.97998C19.7032 9.99746 19.7419 10.001 19.7776 9.98968C19.8133 9.97841 19.843 9.9533 19.8601 9.91998C19.8809 9.88599 19.8863 9.84473 19.8749 9.80655C19.8634 9.76836 19.8362 9.73687 19.8001 9.71998L19.5601 9.59998L19.3501 10.05ZM19.5401 9.85998L19.7001 9.93998C19.7229 9.96035 19.7573 9.96035 19.7801 9.93998C19.8005 9.9172 19.8005 9.88275 19.7801 9.85998L19.6101 9.77998L19.5401 9.85998Z" fill="#3C9242"/>
<path d="M19.6999 10.23C19.6999 10.17 19.7899 10.04 19.6999 9.99996L19.5799 9.93996C19.7199 9.99996 19.6499 10.13 19.5799 10.19" fill="#3C9242"/>
<path d="M19.88 10.32L20.24 10.53L20.28 10.45L19.99 10.29L20.05 10.18L20.28 10.31L20.32 10.24L20.09 10.11L20.13 10.03L20.41 10.19L20.45 10.11L20.1 9.90997L19.88 10.32Z" fill="#3C9242"/>
<path d="M20.5601 10.55C20.5601 10.55 20.5601 10.63 20.5601 10.67C20.5601 10.71 20.6601 10.67 20.6701 10.67C20.6801 10.67 20.4301 10.47 20.5201 10.33C20.6101 10.19 20.7301 10.33 20.7801 10.33C20.8186 10.3472 20.8481 10.3797 20.8614 10.4196C20.8747 10.4596 20.8706 10.5033 20.8501 10.54L20.7601 10.48C20.7601 10.48 20.7601 10.4 20.7601 10.38C20.7601 10.36 20.6801 10.38 20.6501 10.38C20.6201 10.38 20.9001 10.56 20.8101 10.7C20.7201 10.84 20.6301 10.76 20.5601 10.7C20.4901 10.64 20.3901 10.56 20.4501 10.46L20.5601 10.55Z" fill="#3C9242"/>
<path d="M21.0599 10.8799C21.0599 10.8799 21.0599 10.9599 21.0599 10.9999C21.0599 11.0399 21.1599 10.9999 21.1799 10.9999C21.1999 10.9999 20.9399 10.7899 21.0399 10.6499C21.1399 10.5099 21.2599 10.6499 21.2999 10.6499C21.3399 10.6499 21.4299 10.7799 21.3599 10.8699L21.2799 10.8099C21.2799 10.8099 21.2799 10.7299 21.2799 10.6899C21.2799 10.6499 21.2099 10.6899 21.1799 10.6899C21.1499 10.6899 21.4099 10.8899 21.3199 11.0199C21.2299 11.1499 21.1299 11.0699 21.0699 11.0199C21.0099 10.9699 20.9099 10.8699 20.9799 10.7799L21.0599 10.8799Z" fill="#3C9242"/>
<path fill-rule="evenodd" clip-rule="evenodd" d="M21.5301 11.4199C21.6305 11.4874 21.766 11.4655 21.8401 11.3699C21.9265 11.2808 21.9265 11.1391 21.8401 11.0499C21.7397 10.9825 21.6042 11.0044 21.5301 11.0999C21.4437 11.1891 21.4437 11.3308 21.5301 11.4199ZM21.5301 11.3499C21.5547 11.3763 21.5891 11.3912 21.6251 11.3912C21.6611 11.3912 21.6955 11.3763 21.7201 11.3499C21.7697 11.2963 21.7697 11.2136 21.7201 11.1599C21.6698 11.1117 21.5904 11.1117 21.5401 11.1599C21.5138 11.1845 21.4988 11.2189 21.4988 11.2549C21.4988 11.291 21.5138 11.3254 21.5401 11.3499" fill="#3C9242"/>
<path d="M13.29 9.39L13.23 9.59L13.33 9.62L13.29 9.39Z" fill="white"/>
<path d="M13.2901 9.39L13.3601 9.59L13.2601 9.62L13.2901 9.39Z" fill="white"/>
<path d="M13.49 9.52996H13.28V9.62996L13.49 9.52996Z" fill="white"/>
<path d="M13.49 9.52997L13.32 9.64997L13.26 9.56997L13.49 9.52997Z" fill="white"/>
<path d="M13.0901 9.52997L13.2601 9.64997L13.3201 9.56997L13.0901 9.52997Z" fill="white"/>
<path d="M13.0901 9.52996H13.3001V9.62996L13.0901 9.52996Z" fill="white"/>
<path d="M13.4101 9.77004L13.3501 9.57004L13.2501 9.60004L13.4101 9.77004Z" fill="white"/>
<path d="M13.41 9.77004L13.24 9.64004L13.31 9.56004L13.41 9.77004Z" fill="white"/>
<path d="M13.1699 9.77004L13.3399 9.64004L13.2799 9.56004L13.1699 9.77004Z" fill="white"/>
<path d="M13.1699 9.77004L13.2299 9.57004L13.3399 9.60004L13.1699 9.77004Z" fill="white"/>
<path d="M13.73 11.4401L13.66 11.6401L13.76 11.6701L13.73 11.4401Z" fill="white"/>
<path d="M13.73 11.4401L13.79 11.6401L13.69 11.6701L13.73 11.4401Z" fill="white"/>
<path d="M13.9199 11.59H13.7099V11.69L13.9199 11.59Z" fill="white"/>
<path d="M13.9199 11.59L13.7599 11.71L13.6899 11.63L13.9199 11.59Z" fill="white"/>
<path d="M13.53 11.59L13.69 11.71L13.76 11.63L13.53 11.59Z" fill="white"/>
<path d="M13.53 11.59H13.74V11.69L13.53 11.59Z" fill="white"/>
<path d="M13.8499 11.82L13.7899 11.62L13.6799 11.66L13.8499 11.82Z" fill="white"/>
<path d="M13.8499 11.82L13.6799 11.7L13.7399 11.61L13.8499 11.82Z" fill="white"/>
<path d="M13.6001 11.82L13.7701 11.7L13.7101 11.61L13.6001 11.82Z" fill="white"/>
<path d="M13.6001 11.82L13.6601 11.62L13.7701 11.66L13.6001 11.82Z" fill="white"/>
<path d="M13.1301 11.95L13.0901 12.09L13.1501 12.11L13.1301 11.95Z" fill="white"/>
<path d="M13.13 11.95L13.17 12.09L13.1 12.11L13.13 11.95Z" fill="white"/>
<path d="M13.2599 12.05H13.1199V12.12L13.2599 12.05Z" fill="white"/>
<path d="M13.2601 12.05L13.1501 12.13L13.1101 12.07L13.2601 12.05Z" fill="white"/>
<path d="M12.9901 12.05L13.1101 12.13L13.1501 12.07L12.9901 12.05Z" fill="white"/>
<path d="M12.9901 12.05H13.1301V12.12L12.9901 12.05Z" fill="white"/>
<path d="M13.21 12.2L13.16 12.07L13.1 12.09L13.21 12.2Z" fill="white"/>
<path d="M13.21 12.2L13.1 12.12L13.14 12.07L13.21 12.2Z" fill="white"/>
<path d="M13.05 12.2L13.16 12.12L13.12 12.07L13.05 12.2Z" fill="white"/>
<path d="M13.0501 12.2L13.0901 12.07L13.1501 12.09L13.0501 12.2Z" fill="white"/>
<path d="M14.2001 11.2501L14.1701 11.3501L14.2201 11.3601L14.2001 11.2501Z" fill="white"/>
<path d="M14.2 11.2501L14.23 11.3501L14.19 11.3601L14.2 11.2501Z" fill="white"/>
<path d="M14.3 11.32H14.2V11.37L14.3 11.32Z" fill="white"/>
<path d="M14.3001 11.32L14.2201 11.38L14.1901 11.34L14.3001 11.32Z" fill="white"/>
<path d="M14.11 11.32L14.19 11.38L14.22 11.34L14.11 11.32Z" fill="white"/>
<path d="M14.1099 11.32H14.2099V11.37L14.1099 11.32Z" fill="white"/>
<path d="M14.2601 11.43L14.2301 11.34L14.1901 11.36L14.2601 11.43Z" fill="white"/>
<path d="M14.26 11.43L14.18 11.38L14.21 11.33L14.26 11.43Z" fill="white"/>
<path d="M14.1499 11.43L14.2299 11.38L14.1999 11.33L14.1499 11.43Z" fill="white"/>
<path d="M14.1501 11.43L14.1801 11.34L14.2201 11.36L14.1501 11.43Z" fill="white"/>
<path d="M14.75 11.9601L14.69 12.1301L14.77 12.1601L14.75 11.9601Z" fill="white"/>
<path d="M14.75 11.9601L14.8 12.1301L14.72 12.1601L14.75 11.9601Z" fill="white"/>
<path d="M14.9101 12.09H14.7301V12.17L14.9101 12.09Z" fill="white"/>
<path d="M14.9099 12.09L14.7699 12.19L14.7199 12.12L14.9099 12.09Z" fill="white"/>
<path d="M14.58 12.09L14.72 12.19L14.77 12.12L14.58 12.09Z" fill="white"/>
<path d="M14.58 12.09H14.75V12.17L14.58 12.09Z" fill="white"/>
<path d="M14.85 12.2799L14.79 12.1099L14.71 12.1399L14.85 12.2799Z" fill="white"/>
<path d="M14.8499 12.2799L14.6999 12.1799L14.7599 12.1099L14.8499 12.2799Z" fill="white"/>
<path d="M14.64 12.2799L14.78 12.1799L14.73 12.1099L14.64 12.2799Z" fill="white"/>
<path d="M14.64 12.2799L14.7 12.1099L14.78 12.1399L14.64 12.2799Z" fill="white"/>
<path d="M14.6 12.45L14.54 12.62L14.63 12.64L14.6 12.45Z" fill="white"/>
<path d="M14.6001 12.45L14.6501 12.62L14.5701 12.64L14.6001 12.45Z" fill="white"/>
<path d="M14.76 12.57H14.59V12.66L14.76 12.57Z" fill="white"/>
<path d="M14.76 12.57L14.62 12.68L14.57 12.6L14.76 12.57Z" fill="white"/>
<path d="M14.43 12.57L14.57 12.68L14.63 12.6L14.43 12.57Z" fill="white"/>
<path d="M14.43 12.57H14.61V12.66L14.43 12.57Z" fill="white"/>
<path d="M14.7 12.7701L14.65 12.6001L14.57 12.6301L14.7 12.7701Z" fill="white"/>
<path d="M14.6999 12.7701L14.5599 12.6601L14.6099 12.5901L14.6999 12.7701Z" fill="white"/>
<path d="M14.5001 12.7701L14.6401 12.6601L14.5901 12.5901L14.5001 12.7701Z" fill="white"/>
<path d="M14.4999 12.7701L14.5499 12.6001L14.6299 12.6301L14.4999 12.7701Z" fill="white"/>
<path d="M18.8 8.74999L18.74 8.94999L18.84 8.97999L18.8 8.74999Z" fill="white"/>
<path d="M18.8001 8.74999L18.8701 8.94999L18.7701 8.97999L18.8001 8.74999Z" fill="white"/>
<path d="M18.9999 8.88995H18.7999V8.99995L18.9999 8.88995Z" fill="white"/>
<path d="M19 8.88996L18.83 9.01996L18.77 8.92996L19 8.88996Z" fill="white"/>
<path d="M18.6 8.88996L18.78 9.01996L18.84 8.92996L18.6 8.88996Z" fill="white"/>
<path d="M18.6 8.88995H18.82V8.99995L18.6 8.88995Z" fill="white"/>
<path d="M18.9301 9.13003L18.8601 8.93003L18.7701 8.96003L18.9301 9.13003Z" fill="white"/>
<path d="M18.93 9.13002L18.76 9.00002L18.82 8.92002L18.93 9.13002Z" fill="white"/>
<path d="M18.6799 9.13002L18.8499 9.00002L18.7899 8.92002L18.6799 9.13002Z" fill="white"/>
<path d="M18.6799 9.13003L18.7499 8.93003L18.8499 8.96003L18.6799 9.13003Z" fill="white"/>
<path d="M20.72 11.98L20.65 12.18L20.75 12.22L20.72 11.98Z" fill="white"/>
<path d="M20.72 11.98L20.78 12.18L20.68 12.22L20.72 11.98Z" fill="white"/>
<path d="M20.9201 12.1301H20.7001V12.2301L20.9201 12.1301Z" fill="white"/>
<path d="M20.92 12.1299L20.75 12.2499L20.68 12.1599L20.92 12.1299Z" fill="white"/>
<path d="M20.52 12.1299L20.69 12.2499L20.75 12.1599L20.52 12.1299Z" fill="white"/>
<path d="M20.52 12.1301H20.73V12.2301L20.52 12.1301Z" fill="white"/>
<path d="M20.84 12.36L20.78 12.16L20.68 12.19L20.84 12.36Z" fill="white"/>
<path d="M20.8399 12.36L20.6699 12.24L20.7299 12.15L20.8399 12.36Z" fill="white"/>
<path d="M20.59 12.36L20.76 12.24L20.7 12.15L20.59 12.36Z" fill="white"/>
<path d="M20.59 12.36L20.66 12.16L20.76 12.19L20.59 12.36Z" fill="white"/>
<path d="M21.4 12.1L21.35 12.23L21.42 12.25L21.4 12.1Z" fill="white"/>
<path d="M21.4 12.1L21.44 12.23L21.37 12.25L21.4 12.1Z" fill="white"/>
<path d="M21.53 12.2H21.39V12.27L21.53 12.2Z" fill="white"/>
<path d="M21.5301 12.2L21.4201 12.28L21.3801 12.22L21.5301 12.2Z" fill="white"/>
<path d="M21.2601 12.2L21.3801 12.28L21.4201 12.22L21.2601 12.2Z" fill="white"/>
<path d="M21.2601 12.2H21.4001V12.27L21.2601 12.2Z" fill="white"/>
<path d="M21.48 12.35L21.44 12.22L21.37 12.24L21.48 12.35Z" fill="white"/>
<path d="M21.48 12.35L21.37 12.27L21.41 12.21L21.48 12.35Z" fill="white"/>
<path d="M21.3101 12.35L21.4301 12.27L21.3901 12.21L21.3101 12.35Z" fill="white"/>
<path d="M21.31 12.35L21.36 12.22L21.42 12.24L21.31 12.35Z" fill="white"/>
<path d="M20.9199 12.45L20.8699 12.62L20.9499 12.64L20.9199 12.45Z" fill="white"/>
<path d="M20.9199 12.45L20.9699 12.62L20.8899 12.64L20.9199 12.45Z" fill="white"/>
<path d="M21.0801 12.57H20.9101V12.66L21.0801 12.57Z" fill="white"/>
<path d="M21.0801 12.57L20.9501 12.68L20.8901 12.6L21.0801 12.57Z" fill="white"/>
<path d="M20.7501 12.57L20.9001 12.68L20.9501 12.6L20.7501 12.57Z" fill="white"/>
<path d="M20.7501 12.57H20.9301V12.66L20.7501 12.57Z" fill="white"/>
<path d="M21.02 12.7701L20.97 12.6001L20.88 12.6301L21.02 12.7701Z" fill="white"/>
<path d="M21.02 12.7701L20.88 12.6601L20.93 12.5901L21.02 12.7701Z" fill="white"/>
<path d="M20.8099 12.7701L20.9499 12.6601L20.8999 12.5901L20.8099 12.7701Z" fill="white"/>
<path d="M20.8099 12.7701L20.8699 12.6001L20.9499 12.6301L20.8099 12.7701Z" fill="white"/>
<path d="M19.7401 13.48L19.6801 13.64L19.7701 13.67L19.7401 13.48Z" fill="white"/>
<path d="M19.74 13.48L19.79 13.64L19.71 13.67L19.74 13.48Z" fill="white"/>
<path d="M19.8999 13.6H19.7299V13.68L19.8999 13.6Z" fill="white"/>
<path d="M19.8999 13.6L19.7599 13.7L19.7099 13.63L19.8999 13.6Z" fill="white"/>
<path d="M19.57 13.6L19.72 13.7L19.76 13.63L19.57 13.6Z" fill="white"/>
<path d="M19.5699 13.6H19.7499V13.68L19.5699 13.6Z" fill="white"/>
<path d="M19.84 13.79L19.79 13.63L19.7 13.65L19.84 13.79Z" fill="white"/>
<path d="M19.84 13.79L19.7 13.69L19.75 13.62L19.84 13.79Z" fill="white"/>
<path d="M19.64 13.79L19.78 13.69L19.73 13.62L19.64 13.79Z" fill="white"/>
<path d="M19.6401 13.79L19.6901 13.63L19.7701 13.65L19.6401 13.79Z" fill="white"/>
<path d="M19.7301 14L19.6901 14.14L19.7601 14.16L19.7301 14Z" fill="white"/>
<path d="M19.73 14L19.77 14.14L19.71 14.16L19.73 14Z" fill="white"/>
<path d="M19.8599 14.1H19.7299V14.17L19.8599 14.1Z" fill="white"/>
<path d="M19.8599 14.1L19.7499 14.18L19.7099 14.13L19.8599 14.1Z" fill="white"/>
<path d="M19.6 14.1L19.71 14.18L19.75 14.13L19.6 14.1Z" fill="white"/>
<path d="M19.5999 14.1H19.7399V14.17L19.5999 14.1Z" fill="white"/>
<path d="M19.8099 14.2499L19.7699 14.1299L19.6999 14.1399L19.8099 14.2499Z" fill="white"/>
<path d="M19.8099 14.2501L19.6999 14.1801L19.7399 14.1201L19.8099 14.2501Z" fill="white"/>
<path d="M19.6501 14.2501L19.7601 14.1801L19.7201 14.1201L19.6501 14.2501Z" fill="white"/>
<path d="M19.6501 14.2499L19.6901 14.1299L19.7601 14.1399L19.6501 14.2499Z" fill="white"/>
<path d="M20.23 13.12L20.18 13.26L20.24 13.28L20.23 13.12Z" fill="white"/>
<path d="M20.2301 13.12L20.2701 13.26L20.2001 13.28L20.2301 13.12Z" fill="white"/>
<path d="M20.36 13.22H20.22V13.29L20.36 13.22Z" fill="white"/>
<path d="M20.36 13.22L20.24 13.3L20.2 13.25L20.36 13.22Z" fill="white"/>
<path d="M20.09 13.22L20.2 13.3L20.24 13.25L20.09 13.22Z" fill="white"/>
<path d="M20.0899 13.22H20.2299V13.29L20.0899 13.22Z" fill="white"/>
<path d="M20.3099 13.3799L20.2599 13.2499L20.1999 13.2699L20.3099 13.3799Z" fill="white"/>
<path d="M20.31 13.3801L20.19 13.3001L20.24 13.2401L20.31 13.3801Z" fill="white"/>
<path d="M20.14 13.3801L20.26 13.3001L20.22 13.2401L20.14 13.3801Z" fill="white"/>
<path d="M20.1401 13.3799L20.1901 13.2499L20.2501 13.2699L20.1401 13.3799Z" fill="white"/>
<path d="M20.62 12.8399L20.56 13.0099L20.65 13.0399L20.62 12.8399Z" fill="white"/>
<path d="M20.6199 12.8399L20.6699 13.0099L20.5899 13.0399L20.6199 12.8399Z" fill="white"/>
<path d="M20.7801 12.96H20.6101V13.05L20.7801 12.96Z" fill="white"/>
<path d="M20.7801 12.96L20.6501 13.07L20.5901 13L20.7801 12.96Z" fill="white"/>
<path d="M20.45 12.96L20.59 13.07L20.65 13L20.45 12.96Z" fill="white"/>
<path d="M20.45 12.96H20.63V13.05L20.45 12.96Z" fill="white"/>
<path d="M20.7199 13.16L20.6699 12.99L20.5799 13.02L20.7199 13.16Z" fill="white"/>
<path d="M20.7199 13.1599L20.5799 13.0599L20.6299 12.9799L20.7199 13.1599Z" fill="white"/>
<path d="M20.51 13.1599L20.66 13.0599L20.6 12.9799L20.51 13.1599Z" fill="white"/>
<path d="M20.5101 13.16L20.5701 12.99L20.6501 13.02L20.5101 13.16Z" fill="white"/>
<path d="M19.72 13.03L19.68 13.16L19.74 13.19L19.72 13.03Z" fill="white"/>
<path d="M19.7201 13.03L19.7601 13.16L19.6901 13.19L19.7201 13.03Z" fill="white"/>
<path d="M19.85 13.13H19.71V13.2L19.85 13.13Z" fill="white"/>
<path d="M19.8499 13.13L19.7399 13.21L19.6999 13.15L19.8499 13.13Z" fill="white"/>
<path d="M19.59 13.13L19.7 13.21L19.74 13.15L19.59 13.13Z" fill="white"/>
<path d="M19.5899 13.13H19.7299V13.2L19.5899 13.13Z" fill="white"/>
<path d="M19.8001 13.29L19.7601 13.15L19.6901 13.17L19.8001 13.29Z" fill="white"/>
<path d="M19.8001 13.29L19.6901 13.2L19.7301 13.15L19.8001 13.29Z" fill="white"/>
<path d="M19.6401 13.29L19.7501 13.2L19.7101 13.15L19.6401 13.29Z" fill="white"/>
<path d="M19.6401 13.29L19.6801 13.15L19.7501 13.17L19.6401 13.29Z" fill="white"/>
<path d="M15.4199 10.5L15.3699 10.66L15.4499 10.69L15.4199 10.5Z" fill="white"/>
<path d="M15.4199 10.5L15.4799 10.66L15.3999 10.69L15.4199 10.5Z" fill="white"/>
<path d="M15.5899 10.62H15.4199V10.71L15.5899 10.62Z" fill="white"/>
<path d="M15.5901 10.62L15.4501 10.73L15.4001 10.65L15.5901 10.62Z" fill="white"/>
<path d="M15.26 10.62L15.4 10.73L15.45 10.65L15.26 10.62Z" fill="white"/>
<path d="M15.26 10.62H15.43V10.71L15.26 10.62Z" fill="white"/>
<path d="M15.5201 10.82L15.4801 10.65L15.3901 10.68L15.5201 10.82Z" fill="white"/>
<path d="M15.52 10.82L15.38 10.71L15.43 10.64L15.52 10.82Z" fill="white"/>
<path d="M15.3199 10.82L15.4599 10.71L15.4099 10.64L15.3199 10.82Z" fill="white"/>
<path d="M15.32 10.82L15.38 10.65L15.45 10.68L15.32 10.82Z" fill="white"/>
<path d="M18.6201 10.09L18.5801 10.22L18.6401 10.24L18.6201 10.09Z" fill="white"/>
<path d="M18.6199 10.09L18.6599 10.22L18.5999 10.24L18.6199 10.09Z" fill="white"/>
<path d="M18.7499 10.18H18.6099V10.25L18.7499 10.18Z" fill="white"/>
<path d="M18.75 10.18L18.64 10.27L18.6 10.21L18.75 10.18Z" fill="white"/>
<path d="M18.4899 10.18L18.5999 10.27L18.6399 10.21L18.4899 10.18Z" fill="white"/>
<path d="M18.4901 10.18H18.6301V10.25L18.4901 10.18Z" fill="white"/>
<path d="M18.7 10.34L18.66 10.21L18.59 10.23L18.7 10.34Z" fill="white"/>
<path d="M18.7 10.34L18.59 10.26L18.63 10.2L18.7 10.34Z" fill="white"/>
<path d="M18.54 10.34L18.65 10.26L18.61 10.2L18.54 10.34Z" fill="white"/>
<path d="M18.54 10.34L18.58 10.21L18.65 10.23L18.54 10.34Z" fill="white"/>
<path d="M17.29 12.46L17.22 12.66L17.32 12.69L17.29 12.46Z" fill="white"/>
<path d="M17.29 12.46L17.35 12.66L17.25 12.69L17.29 12.46Z" fill="white"/>
<path d="M17.49 12.61H17.28V12.71L17.49 12.61Z" fill="white"/>
<path d="M17.49 12.61L17.32 12.73L17.26 12.64L17.49 12.61Z" fill="white"/>
<path d="M17.0901 12.61L17.2601 12.73L17.3201 12.64L17.0901 12.61Z" fill="white"/>
<path d="M17.0901 12.61H17.3001V12.71L17.0901 12.61Z" fill="white"/>
<path d="M17.4101 12.84L17.3501 12.64L17.2501 12.68L17.4101 12.84Z" fill="white"/>
<path d="M17.41 12.84L17.24 12.72L17.3 12.63L17.41 12.84Z" fill="white"/>
<path d="M17.1601 12.84L17.3301 12.72L17.2701 12.63L17.1601 12.84Z" fill="white"/>
<path d="M17.1601 12.84L17.2301 12.64L17.3301 12.68L17.1601 12.84Z" fill="white"/>
<path d="M17.8501 11.52L17.8001 11.69L17.8801 11.72L17.8501 11.52Z" fill="white"/>
<path d="M17.8501 11.52L17.9101 11.69L17.8301 11.72L17.8501 11.52Z" fill="white"/>
<path d="M18.0199 11.6499H17.8399V11.7299L18.0199 11.6499Z" fill="white"/>
<path d="M18.02 11.65L17.88 11.75L17.83 11.68L18.02 11.65Z" fill="white"/>
<path d="M17.6899 11.65L17.8299 11.75L17.8799 11.68L17.6899 11.65Z" fill="white"/>
<path d="M17.6899 11.6499H17.8599V11.7299L17.6899 11.6499Z" fill="white"/>
<path d="M17.9599 11.84L17.8999 11.67L17.8199 11.7L17.9599 11.84Z" fill="white"/>
<path d="M17.9599 11.84L17.8199 11.74L17.8699 11.67L17.9599 11.84Z" fill="white"/>
<path d="M17.7501 11.84L17.8901 11.74L17.8401 11.67L17.7501 11.84Z" fill="white"/>
<path d="M17.7501 11.84L17.8001 11.67L17.8901 11.7L17.7501 11.84Z" fill="white"/>
<path d="M17.2899 11.0901L17.2299 11.2501L17.3199 11.2801L17.2899 11.0901Z" fill="white"/>
<path d="M17.29 11.0901L17.34 11.2501L17.26 11.2801L17.29 11.0901Z" fill="white"/>
<path d="M17.45 11.21H17.28V11.29L17.45 11.21Z" fill="white"/>
<path d="M17.45 11.21L17.31 11.31L17.26 11.24L17.45 11.21Z" fill="white"/>
<path d="M17.1201 11.21L17.2701 11.31L17.3101 11.24L17.1201 11.21Z" fill="white"/>
<path d="M17.12 11.21H17.3V11.29L17.12 11.21Z" fill="white"/>
<path d="M17.3901 11.3999L17.3401 11.2299L17.2501 11.2599L17.3901 11.3999Z" fill="white"/>
<path d="M17.3901 11.3999L17.2501 11.2999L17.3001 11.2299L17.3901 11.3999Z" fill="white"/>
<path d="M17.19 11.3999L17.33 11.2999L17.27 11.2299L17.19 11.3999Z" fill="white"/>
<path d="M17.1899 11.3999L17.2399 11.2299L17.3199 11.2599L17.1899 11.3999Z" fill="white"/>
<path d="M16.7899 11.56L16.7499 11.69L16.8199 11.71L16.7899 11.56Z" fill="white"/>
<path d="M16.7899 11.56L16.8399 11.69L16.7699 11.71L16.7899 11.56Z" fill="white"/>
<path d="M16.9301 11.6599H16.7901V11.7299L16.9301 11.6599Z" fill="white"/>
<path d="M16.9301 11.66L16.8101 11.74L16.7701 11.68L16.9301 11.66Z" fill="white"/>
<path d="M16.6601 11.66L16.7701 11.74L16.8101 11.68L16.6601 11.66Z" fill="white"/>
<path d="M16.66 11.6599H16.8V11.7299L16.66 11.6599Z" fill="white"/>
<path d="M16.88 11.81L16.84 11.68L16.77 11.7L16.88 11.81Z" fill="white"/>
<path d="M16.88 11.81L16.77 11.73L16.81 11.67L16.88 11.81Z" fill="white"/>
<path d="M16.7199 11.81L16.8299 11.73L16.7799 11.67L16.7199 11.81Z" fill="white"/>
<path d="M16.72 11.81L16.76 11.68L16.82 11.7L16.72 11.81Z" fill="white"/>
<path d="M17.0399 11.94L17.0099 12.03L17.0599 12.05L17.0399 11.94Z" fill="white"/>
<path d="M17.0399 11.94L17.0699 12.03L17.0199 12.05L17.0399 11.94Z" fill="white"/>
<path d="M17.1401 12.01H17.0401V12.06L17.1401 12.01Z" fill="white"/>
<path d="M17.14 12.01L17.06 12.07L17.03 12.03L17.14 12.01Z" fill="white"/>
<path d="M16.9499 12.01L17.0299 12.07L17.0599 12.03L16.9499 12.01Z" fill="white"/>
<path d="M16.95 12.01H17.05V12.06L16.95 12.01Z" fill="white"/>
<path d="M17.1001 12.1199L17.0701 12.0199L17.0201 12.0399L17.1001 12.1199Z" fill="white"/>
<path d="M17.1001 12.1199L17.0201 12.0599L17.0501 12.0199L17.1001 12.1199Z" fill="white"/>
<path d="M16.98 12.1199L17.06 12.0599L17.03 12.0199L16.98 12.1199Z" fill="white"/>
<path d="M16.98 12.1199L17.02 12.0199L17.06 12.0399L16.98 12.1199Z" fill="white"/>
<path d="M18.75 13.5899L18.7 13.7599L18.78 13.7899L18.75 13.5899Z" fill="white"/>
<path d="M18.7499 13.5899L18.8099 13.7599L18.7199 13.7899L18.7499 13.5899Z" fill="white"/>
<path d="M18.9201 13.71H18.7401V13.8L18.9201 13.71Z" fill="white"/>
<path d="M18.92 13.71L18.78 13.82L18.73 13.75L18.92 13.71Z" fill="white"/>
<path d="M18.5901 13.71L18.7301 13.82L18.7801 13.75L18.5901 13.71Z" fill="white"/>
<path d="M18.59 13.71H18.76V13.8L18.59 13.71Z" fill="white"/>
<path d="M18.8499 13.91L18.7999 13.75L18.7199 13.77L18.8499 13.91Z" fill="white"/>
<path d="M18.8499 13.91L18.7199 13.81L18.7699 13.74L18.8499 13.91Z" fill="white"/>
<path d="M18.65 13.91L18.79 13.81L18.74 13.74L18.65 13.91Z" fill="white"/>
<path d="M18.65 13.91L18.7 13.75L18.79 13.77L18.65 13.91Z" fill="white"/>
<path d="M19.1699 13.2L19.1299 13.33L19.1899 13.35L19.1699 13.2Z" fill="white"/>
<path d="M19.1701 13.2L19.2201 13.33L19.1501 13.35L19.1701 13.2Z" fill="white"/>
<path d="M19.3 13.3H19.16V13.36L19.3 13.3Z" fill="white"/>
<path d="M19.3001 13.3L19.1901 13.38L19.1501 13.32L19.3001 13.3Z" fill="white"/>
<path d="M19.04 13.3L19.15 13.38L19.19 13.32L19.04 13.3Z" fill="white"/>
<path d="M19.0401 13.3H19.1801V13.36L19.0401 13.3Z" fill="white"/>
<path d="M19.25 13.45L19.21 13.32L19.15 13.34L19.25 13.45Z" fill="white"/>
<path d="M19.2501 13.45L19.1401 13.37L19.1801 13.31L19.2501 13.45Z" fill="white"/>
<path d="M19.09 13.45L19.2 13.37L19.16 13.31L19.09 13.45Z" fill="white"/>
<path d="M19.09 13.45L19.13 13.32L19.2 13.34L19.09 13.45Z" fill="white"/>
<path d="M18.37 13.08L18.32 13.21L18.39 13.23L18.37 13.08Z" fill="white"/>
<path d="M18.3699 13.08L18.4099 13.21L18.3499 13.23L18.3699 13.08Z" fill="white"/>
<path d="M18.4999 13.17H18.3599V13.25L18.4999 13.17Z" fill="white"/>
<path d="M18.5 13.17L18.38 13.26L18.35 13.2L18.5 13.17Z" fill="white"/>
<path d="M18.2299 13.17L18.3499 13.26L18.3799 13.2L18.2299 13.17Z" fill="white"/>
<path d="M18.2299 13.17H18.3799V13.25L18.2299 13.17Z" fill="white"/>
<path d="M18.45 13.33L18.41 13.2L18.34 13.22L18.45 13.33Z" fill="white"/>
<path d="M18.4499 13.33L18.3299 13.25L18.3799 13.19L18.4499 13.33Z" fill="white"/>
<path d="M18.2801 13.33L18.4001 13.25L18.3501 13.19L18.2801 13.33Z" fill="white"/>
<path d="M18.2801 13.33L18.3301 13.2L18.4001 13.22L18.2801 13.33Z" fill="white"/>
<path d="M15.3201 12.86L15.2601 13.06L15.3601 13.09L15.3201 12.86Z" fill="white"/>
<path d="M15.3201 12.86L15.3901 13.06L15.2901 13.09L15.3201 12.86Z" fill="white"/>
<path d="M15.52 13.0101H15.31V13.1101L15.52 13.0101Z" fill="white"/>
<path d="M15.52 13.0099L15.35 13.1299L15.29 13.0499L15.52 13.0099Z" fill="white"/>
<path d="M15.1201 13.0099L15.3001 13.1299L15.3501 13.0499L15.1201 13.0099Z" fill="white"/>
<path d="M15.1201 13.0101H15.3301V13.1101L15.1201 13.0101Z" fill="white"/>
<path d="M15.45 13.24L15.38 13.04L15.28 13.07L15.45 13.24Z" fill="white"/>
<path d="M15.45 13.24L15.28 13.12L15.34 13.03L15.45 13.24Z" fill="white"/>
<path d="M15.1999 13.24L15.3699 13.12L15.3099 13.03L15.1999 13.24Z" fill="white"/>
<path d="M15.1999 13.24L15.2699 13.04L15.3699 13.07L15.1999 13.24Z" fill="white"/>
<path d="M17.2899 14.23L17.2699 14.3L17.2999 14.31L17.2899 14.23Z" fill="white"/>
<path d="M17.2899 14.23L17.3099 14.3L17.2799 14.31L17.2899 14.23Z" fill="white"/>
<path d="M17.3499 14.28H17.2799V14.32L17.3499 14.28Z" fill="white"/>
<path d="M17.3499 14.28L17.2999 14.32L17.2799 14.29L17.3499 14.28Z" fill="white"/>
<path d="M17.22 14.28L17.28 14.32L17.3 14.29L17.22 14.28Z" fill="white"/>
<path d="M17.2199 14.28H17.2899V14.32L17.2199 14.28Z" fill="white"/>
<path d="M17.33 14.36L17.31 14.29L17.27 14.3L17.33 14.36Z" fill="white"/>
<path d="M17.33 14.36L17.27 14.32L17.29 14.29L17.33 14.36Z" fill="white"/>
<path d="M17.2499 14.36L17.2999 14.32L17.2799 14.29L17.2499 14.36Z" fill="white"/>
<path d="M17.2499 14.36L17.2699 14.29L17.2999 14.3L17.2499 14.36Z" fill="white"/>
</svg>
