<svg width="35" height="20" viewBox="0 0 35 20" fill="none" xmlns="http://www.w3.org/2000/svg">
<rect x="0.51001" y="0.109985" width="7.9" height="19.58" fill="#EA0020"/>
<rect x="26.1799" y="0.109985" width="7.9" height="19.58" fill="#EA0020"/>
<rect x="8.40991" y="0.109985" width="17.77" height="19.58" fill="white"/>
<path d="M17.2999 2.64001L16.1299 4.91001C15.9999 5.15001 15.7599 5.13001 15.5299 4.99001L14.6799 4.53001L15.3099 8.01001C15.4399 8.65001 15.0199 8.65001 14.8099 8.37001L13.3399 6.66001L13.0999 7.53001C13.0566 7.67081 12.9147 7.75682 12.7699 7.73001L10.9099 7.32001L11.3999 9.17001C11.4999 9.59001 11.5799 9.76001 11.2899 9.87001L10.6299 10.19L13.8299 12.9C13.9613 13.0093 14.0194 13.1837 13.9799 13.35L13.6999 14.35L16.8899 13.97C16.9899 13.97 17.1499 14.05 17.1499 14.17L16.9999 17.64H17.5399L17.4499 14.14C17.4499 14.02 17.5999 13.93 17.6999 13.93L20.8899 14.31L20.6099 13.31C20.5703 13.1437 20.6285 12.9693 20.7599 12.86L23.9599 10.15L23.2999 9.83001C22.9999 9.72001 23.0899 9.55001 23.1899 9.13001L23.6799 7.28001L21.8199 7.69001C21.6751 7.71682 21.5331 7.63081 21.4899 7.49001L21.2499 6.62001L19.7799 8.33001C19.5699 8.61001 19.1499 8.61001 19.2799 7.97001L19.9099 4.49001L19.0699 4.95001C18.8299 5.09001 18.5899 5.11001 18.4599 4.87001L17.2999 2.64001Z" fill="#EA0020"/>
</svg>
