<svg width="34" height="20" viewBox="0 0 34 20" fill="none" xmlns="http://www.w3.org/2000/svg">
<rect x="0.290039" y="18.15" width="33.71" height="1.51" fill="#CB001C"/>
<rect x="0.290039" y="16.64" width="33.71" height="1.51" fill="white"/>
<rect x="0.290039" y="15.13" width="33.71" height="1.51" fill="#CB001C"/>
<rect x="0.290039" y="13.61" width="33.71" height="1.51" fill="white"/>
<rect x="0.290039" y="12.1" width="33.71" height="1.51" fill="#CB001C"/>
<rect x="0.290039" y="10.59" width="33.71" height="1.51" fill="white"/>
<rect x="0.290039" y="9.07996" width="33.71" height="1.51" fill="#CB001C"/>
<rect x="0.290039" y="7.56006" width="33.71" height="1.51" fill="white"/>
<rect x="0.290039" y="6.05005" width="33.71" height="1.51" fill="#CB001C"/>
<rect x="0.290039" y="4.54004" width="33.71" height="1.51" fill="white"/>
<rect x="0.290039" y="3.03003" width="33.71" height="1.51" fill="#CB001C"/>
<rect x="0.290039" y="1.51001" width="33.71" height="1.51" fill="white"/>
<rect x="0.290039" width="33.71" height="1.51" fill="#CB001C"/>
<rect x="0.290039" width="15.4" height="10.59" fill="#2A3560"/>
<path d="M1.67988 1.17004L1.80988 1.57004H2.22988L1.88988 1.82004L2.01988 2.22004L1.67988 1.97004L1.33988 2.22004L1.46988 1.82004L1.12988 1.57004H1.54988L1.67988 1.17004Z" fill="white"/>
<path d="M1.67988 2.93994L1.80988 3.33994H2.22988L1.88988 3.57994L2.01988 3.97994L1.67988 3.72994L1.33988 3.97994L1.46988 3.57994L1.12988 3.33994H1.54988L1.67988 2.93994Z" fill="white"/>
<path d="M1.67988 4.69995L1.80988 5.09995H2.22988L1.88988 5.34995L2.01988 5.74995L1.67988 5.49995L1.33988 5.74995L1.46988 5.34995L1.12988 5.09995H1.54988L1.67988 4.69995Z" fill="white"/>
<path d="M1.67988 6.46997L1.80988 6.86997H2.22988L1.88988 7.11997L2.01988 7.51997L1.67988 7.26997L1.33988 7.51997L1.46988 7.11997L1.12988 6.86997H1.54988L1.67988 6.46997Z" fill="white"/>
<path d="M1.67988 8.23999L1.80988 8.63999H2.22988L1.88988 8.87999L2.01988 9.28999L1.67988 9.03999L1.33988 9.28999L1.46988 8.87999L1.12988 8.63999H1.54988L1.67988 8.23999Z" fill="white"/>
<path d="M2.91011 2.09998L3.03011 2.49998H3.46011L3.12011 2.74998L3.25011 3.14998L2.91011 2.89998L2.57011 3.14998L2.70011 2.74998L2.36011 2.49998H2.78011L2.91011 2.09998Z" fill="white"/>
<path d="M2.91011 3.87L3.03011 4.27H3.46011L3.12011 4.51L3.25011 4.91L2.91011 4.67L2.57011 4.91L2.70011 4.51L2.36011 4.27H2.78011L2.91011 3.87Z" fill="white"/>
<path d="M2.91011 5.63L3.03011 6.03H3.46011L3.12011 6.28L3.25011 6.68L2.91011 6.44L2.57011 6.68L2.70011 6.28L2.36011 6.03H2.78011L2.91011 5.63Z" fill="white"/>
<path d="M2.91011 7.40002L3.03011 7.80002H3.46011L3.12011 8.05002L3.25011 8.45002L2.91011 8.20002L2.57011 8.45002L2.70011 8.05002L2.36011 7.80002H2.78011L2.91011 7.40002Z" fill="white"/>
<path d="M4.1501 1.17004L4.2801 1.57004H4.7101L4.3601 1.82004L4.5001 2.22004L4.1501 1.97004L3.8201 2.22004L3.9401 1.82004L3.6001 1.57004H4.0201L4.1501 1.17004Z" fill="white"/>
<path d="M4.1501 2.93994L4.2801 3.33994H4.7101L4.3601 3.57994L4.5001 3.97994L4.1501 3.72994L3.8201 3.97994L3.9401 3.57994L3.6001 3.33994H4.0201L4.1501 2.93994Z" fill="white"/>
<path d="M4.1501 4.69995L4.2801 5.09995H4.7101L4.3601 5.34995L4.5001 5.74995L4.1501 5.49995L3.8201 5.74995L3.9401 5.34995L3.6001 5.09995H4.0201L4.1501 4.69995Z" fill="white"/>
<path d="M4.1501 6.46997L4.2801 6.86997H4.7101L4.3601 7.11997L4.5001 7.51997L4.1501 7.26997L3.8201 7.51997L3.9401 7.11997L3.6001 6.86997H4.0201L4.1501 6.46997Z" fill="white"/>
<path d="M4.1501 8.23999L4.2801 8.63999H4.7101L4.3601 8.87999L4.5001 9.28999L4.1501 9.03999L3.8201 9.28999L3.9401 8.87999L3.6001 8.63999H4.0201L4.1501 8.23999Z" fill="white"/>
<path d="M5.39008 2.09998L5.52008 2.49998H5.94008L5.59008 2.74998L5.73008 3.14998L5.39008 2.89998L5.05008 3.14998L5.18008 2.74998L4.83008 2.49998H5.25008L5.39008 2.09998Z" fill="white"/>
<path d="M5.39008 3.87L5.52008 4.27H5.94008L5.59008 4.51L5.73008 4.91L5.39008 4.67L5.05008 4.91L5.18008 4.51L4.83008 4.27H5.25008L5.39008 3.87Z" fill="white"/>
<path d="M5.39008 5.63L5.52008 6.03H5.94008L5.59008 6.28L5.73008 6.68L5.39008 6.44L5.05008 6.68L5.18008 6.28L4.83008 6.03H5.25008L5.39008 5.63Z" fill="white"/>
<path d="M5.39008 7.40002L5.52008 7.80002H5.94008L5.59008 8.05002L5.73008 8.45002L5.39008 8.20002L5.05008 8.45002L5.18008 8.05002L4.83008 7.80002H5.25008L5.39008 7.40002Z" fill="white"/>
<path d="M6.63008 1.17004L6.77008 1.57004H7.18008L6.84008 1.82004L6.98008 2.22004L6.63008 1.97004L6.29008 2.22004L6.42008 1.82004L6.08008 1.57004H6.50008L6.63008 1.17004Z" fill="white"/>
<path d="M6.63008 2.93994L6.77008 3.33994H7.18008L6.84008 3.57994L6.98008 3.97994L6.63008 3.72994L6.29008 3.97994L6.42008 3.57994L6.08008 3.33994H6.50008L6.63008 2.93994Z" fill="white"/>
<path d="M6.63008 4.69995L6.77008 5.09995H7.18008L6.84008 5.34995L6.98008 5.74995L6.63008 5.49995L6.29008 5.74995L6.42008 5.34995L6.08008 5.09995H6.50008L6.63008 4.69995Z" fill="white"/>
<path d="M6.63008 6.46997L6.77008 6.86997H7.18008L6.84008 7.11997L6.98008 7.51997L6.63008 7.26997L6.29008 7.51997L6.42008 7.11997L6.08008 6.86997H6.50008L6.63008 6.46997Z" fill="white"/>
<path d="M6.63008 8.23999L6.77008 8.63999H7.18008L6.84008 8.87999L6.98008 9.28999L6.63008 9.03999L6.29008 9.28999L6.42008 8.87999L6.08008 8.63999H6.50008L6.63008 8.23999Z" fill="white"/>
<path d="M7.86006 2.09998L7.99006 2.49998H8.41006L8.08006 2.74998L8.20006 3.14998L7.86006 2.89998L7.53006 3.14998L7.65006 2.74998L7.31006 2.49998H7.73006L7.86006 2.09998Z" fill="white"/>
<path d="M7.86006 3.87L7.99006 4.27H8.41006L8.08006 4.51L8.20006 4.91L7.86006 4.67L7.53006 4.91L7.65006 4.51L7.31006 4.27H7.73006L7.86006 3.87Z" fill="white"/>
<path d="M7.86006 5.63L7.99006 6.03H8.41006L8.08006 6.28L8.20006 6.68L7.86006 6.44L7.53006 6.68L7.65006 6.28L7.31006 6.03H7.73006L7.86006 5.63Z" fill="white"/>
<path d="M7.86006 7.40002L7.99006 7.80002H8.41006L8.08006 8.05002L8.20006 8.45002L7.86006 8.20002L7.53006 8.45002L7.65006 8.05002L7.31006 7.80002H7.73006L7.86006 7.40002Z" fill="white"/>
<path d="M9.11006 1.17004L9.24006 1.57004H9.66006L9.32006 1.82004L9.45006 2.22004L9.11006 1.97004L8.77006 2.22004L8.90006 1.82004L8.56006 1.57004H8.98006L9.11006 1.17004Z" fill="white"/>
<path d="M9.11006 2.93994L9.24006 3.33994H9.66006L9.32006 3.57994L9.45006 3.97994L9.11006 3.72994L8.77006 3.97994L8.90006 3.57994L8.56006 3.33994H8.98006L9.11006 2.93994Z" fill="white"/>
<path d="M9.11006 4.69995L9.24006 5.09995H9.66006L9.32006 5.34995L9.45006 5.74995L9.11006 5.49995L8.77006 5.74995L8.90006 5.34995L8.56006 5.09995H8.98006L9.11006 4.69995Z" fill="white"/>
<path d="M9.11006 6.46997L9.24006 6.86997H9.66006L9.32006 7.11997L9.45006 7.51997L9.11006 7.26997L8.77006 7.51997L8.90006 7.11997L8.56006 6.86997H8.98006L9.11006 6.46997Z" fill="white"/>
<path d="M9.11006 8.23999L9.24006 8.63999H9.66006L9.32006 8.87999L9.45006 9.28999L9.11006 9.03999L8.77006 9.28999L8.90006 8.87999L8.56006 8.63999H8.98006L9.11006 8.23999Z" fill="white"/>
<path d="M10.34 2.09998L10.47 2.49998H10.89L10.55 2.74998L10.68 3.14998L10.34 2.89998L10 3.14998L10.13 2.74998L9.79004 2.49998H10.21L10.34 2.09998Z" fill="white"/>
<path d="M10.34 3.87L10.47 4.27H10.89L10.55 4.51L10.68 4.91L10.34 4.67L10 4.91L10.13 4.51L9.79004 4.27H10.21L10.34 3.87Z" fill="white"/>
<path d="M10.34 5.63L10.47 6.03H10.89L10.55 6.28L10.68 6.68L10.34 6.44L10 6.68L10.13 6.28L9.79004 6.03H10.21L10.34 5.63Z" fill="white"/>
<path d="M10.34 7.40002L10.47 7.80002H10.89L10.55 8.05002L10.68 8.45002L10.34 8.20002L10 8.45002L10.13 8.05002L9.79004 7.80002H10.21L10.34 7.40002Z" fill="white"/>
<path d="M11.59 1.17004L11.72 1.57004H12.14L11.8 1.82004L11.93 2.22004L11.59 1.97004L11.25 2.22004L11.38 1.82004L11.04 1.57004H11.46L11.59 1.17004Z" fill="white"/>
<path d="M11.59 2.93994L11.72 3.33994H12.14L11.8 3.57994L11.93 3.97994L11.59 3.72994L11.25 3.97994L11.38 3.57994L11.04 3.33994H11.46L11.59 2.93994Z" fill="white"/>
<path d="M11.59 4.69995L11.72 5.09995H12.14L11.8 5.34995L11.93 5.74995L11.59 5.49995L11.25 5.74995L11.38 5.34995L11.04 5.09995H11.46L11.59 4.69995Z" fill="white"/>
<path d="M11.59 6.46997L11.72 6.86997H12.14L11.8 7.11997L11.93 7.51997L11.59 7.26997L11.25 7.51997L11.38 7.11997L11.04 6.86997H11.46L11.59 6.46997Z" fill="white"/>
<path d="M11.59 8.23999L11.72 8.63999H12.14L11.8 8.87999L11.93 9.28999L11.59 9.03999L11.25 9.28999L11.38 8.87999L11.04 8.63999H11.46L11.59 8.23999Z" fill="white"/>
<path d="M12.82 2.09998L12.95 2.49998H13.37L13.03 2.74998L13.16 3.14998L12.82 2.89998L12.48 3.14998L12.61 2.74998L12.27 2.49998H12.69L12.82 2.09998Z" fill="white"/>
<path d="M12.82 3.87L12.95 4.27H13.37L13.03 4.51L13.16 4.91L12.82 4.67L12.48 4.91L12.61 4.51L12.27 4.27H12.69L12.82 3.87Z" fill="white"/>
<path d="M12.82 5.63L12.95 6.03H13.37L13.03 6.28L13.16 6.68L12.82 6.44L12.48 6.68L12.61 6.28L12.27 6.03H12.69L12.82 5.63Z" fill="white"/>
<path d="M12.82 7.40002L12.95 7.80002H13.37L13.03 8.05002L13.16 8.45002L12.82 8.20002L12.48 8.45002L12.61 8.05002L12.27 7.80002H12.69L12.82 7.40002Z" fill="white"/>
<path d="M14.06 1.17004L14.2 1.57004H14.61L14.28 1.82004L14.41 2.22004L14.06 1.97004L13.73 2.22004L13.85 1.82004L13.52 1.57004H13.93L14.06 1.17004Z" fill="white"/>
<path d="M14.06 2.93994L14.2 3.33994H14.61L14.28 3.57994L14.41 3.97994L14.06 3.72994L13.73 3.97994L13.85 3.57994L13.52 3.33994H13.93L14.06 2.93994Z" fill="white"/>
<path d="M14.06 4.69995L14.2 5.09995H14.61L14.28 5.34995L14.41 5.74995L14.06 5.49995L13.73 5.74995L13.85 5.34995L13.52 5.09995H13.93L14.06 4.69995Z" fill="white"/>
<path d="M14.06 6.46997L14.2 6.86997H14.61L14.28 7.11997L14.41 7.51997L14.06 7.26997L13.73 7.51997L13.85 7.11997L13.52 6.86997H13.93L14.06 6.46997Z" fill="white"/>
<path d="M14.06 8.23999L14.2 8.63999H14.61L14.28 8.87999L14.41 9.28999L14.06 9.03999L13.73 9.28999L13.85 8.87999L13.52 8.63999H13.93L14.06 8.23999Z" fill="white"/>
</svg>
