<svg width="36" height="12" viewBox="0 0 36 12" fill="none" xmlns="http://www.w3.org/2000/svg">
<path d="M25.5543 2.25146L22.6058 7.86289C22.5429 7.98289 22.36 7.98289 22.2972 7.86289L19.3486 2.25146C19.32 2.19432 19.2629 2.16003 19.2 2.16003H17.7715C17.6743 2.16003 17.6115 2.26289 17.6572 2.34861L22.3029 11.0457C22.3658 11.1657 22.5372 11.1657 22.6058 11.0457L27.2515 2.34861C27.2972 2.26289 27.2343 2.16003 27.1372 2.16003H25.7086C25.64 2.16003 25.5829 2.19432 25.5543 2.25146V2.25146Z" fill="white"/>
<path d="M27.2286 9.74293L30.1772 4.1315C30.24 4.0115 30.4229 4.0115 30.4857 4.1315L33.4343 9.74293C33.4629 9.80007 33.52 9.83436 33.5829 9.83436H35.0115C35.1086 9.83436 35.1715 9.7315 35.1257 9.64579L30.48 0.948643C30.4172 0.828643 30.2457 0.828643 30.1772 0.948643L25.5315 9.64579C25.4857 9.7315 25.5486 9.83436 25.6457 9.83436H27.0743C27.1372 9.82864 27.2 9.79436 27.2286 9.74293V9.74293Z" fill="white"/>
<path fill-rule="evenodd" clip-rule="evenodd" d="M7.07432 6.29715C7.69146 5.98858 8.07432 5.32001 8.07432 4.50287C8.07432 3.10287 6.98289 2.1543 5.44575 2.1543H1.02861C0.931463 2.1543 0.857178 2.22858 0.857178 2.32573V10.96C0.857178 11.0572 0.931463 11.1314 1.02861 11.1314H5.25718C7.37146 11.1314 8.48575 10.2229 8.48575 8.44001C8.48575 6.70287 7.07432 6.29715 7.07432 6.29715ZM2.51432 3.45715H5.13718C6.10289 3.45715 6.59432 3.86858 6.59432 4.6343C6.59432 5.40001 6.10289 5.81144 5.13718 5.81144H2.51432C2.42289 5.81144 2.34289 5.73715 2.34289 5.64001V3.62858C2.34289 3.53144 2.41718 3.45715 2.51432 3.45715ZM2.51432 9.82858H5.17146C6.45146 9.82858 7.00003 9.4743 7.00575 8.46287C7.00575 7.46287 6.44003 7.10287 5.17146 7.10287H2.51432C2.41718 7.10287 2.34289 7.18287 2.34289 7.2743V9.65715C2.34289 9.7543 2.41718 9.82858 2.51432 9.82858Z" fill="white"/>
<path fill-rule="evenodd" clip-rule="evenodd" d="M16.1429 6.29715C16.76 5.98858 17.1429 5.32001 17.1429 4.50287C17.1429 3.10287 16.0515 2.1543 14.5143 2.1543H10.0915C9.99433 2.1543 9.92004 2.22858 9.92004 2.32573V10.96C9.92004 11.0572 9.99433 11.1314 10.0915 11.1314H14.32C16.4343 11.1314 17.5486 10.2229 17.5486 8.44001C17.5543 6.70287 16.1429 6.29715 16.1429 6.29715ZM11.5829 3.45715H14.2058C15.1715 3.45715 15.6629 3.86858 15.6629 4.6343C15.6629 5.40001 15.1715 5.81144 14.2058 5.81144H11.5829C11.4858 5.81144 11.4115 5.73715 11.4115 5.64001V3.62858C11.4115 3.53144 11.4858 3.45715 11.5829 3.45715ZM11.5772 9.82858H14.2343C15.5143 9.82858 16.0686 9.4743 16.0686 8.46287C16.0686 7.46287 15.5029 7.10287 14.2343 7.10287H11.5772C11.48 7.10287 11.4058 7.18287 11.4058 7.2743V9.65715C11.4058 9.7543 11.4858 9.82858 11.5772 9.82858Z" fill="white"/>
</svg>
