<svg width="97" height="30" viewBox="0 0 97 30" fill="none" xmlns="http://www.w3.org/2000/svg">
<path d="M68.2131 3.80257L60.1715 19.1065C60.0001 19.4337 59.5014 19.4337 59.33 19.1065L51.2884 3.80257C51.2105 3.64673 51.0546 3.55322 50.8832 3.55322H46.9871C46.7222 3.55322 46.5507 3.83374 46.6754 4.06751L59.3455 27.787C59.517 28.1143 59.9845 28.1143 60.1715 27.787L72.8416 4.06751C72.9663 3.83374 72.7949 3.55322 72.53 3.55322H68.6339C68.4468 3.55322 68.291 3.64673 68.2131 3.80257Z" fill="white"/>
<path d="M72.7792 24.2338L80.8208 8.92988C80.9922 8.60261 81.4909 8.60261 81.6623 8.92988L89.7039 24.2338C89.7818 24.3896 89.9376 24.4831 90.1091 24.4831H94.0052C94.2701 24.4831 94.4415 24.2026 94.3169 23.9688L81.6467 0.249361C81.4753 -0.0779119 81.0078 -0.0779119 80.8208 0.249361L68.1506 23.9688C68.026 24.2026 68.1974 24.4831 68.4623 24.4831H72.3584C72.5299 24.4675 72.7013 24.374 72.7792 24.2338Z" fill="white"/>
<path fill-rule="evenodd" clip-rule="evenodd" d="M17.813 14.8364C19.4961 13.9949 20.5403 12.1715 20.5403 9.94291C20.5403 6.12473 17.5637 3.53772 13.3715 3.53772H1.32471C1.05978 3.53772 0.857178 3.74032 0.857178 4.00525V27.5533C0.857178 27.8182 1.05978 28.0208 1.32471 28.0208H12.8572C18.6234 28.0208 21.6624 25.5429 21.6624 20.6806C21.6624 15.9429 17.813 14.8364 17.813 14.8364ZM5.37666 7.09097H12.5299C15.1637 7.09097 16.5039 8.21304 16.5039 10.3014C16.5039 12.3897 15.1637 13.5117 12.5299 13.5117H5.37666C5.12731 13.5117 4.90913 13.3091 4.90913 13.0442V7.5585C4.90913 7.29356 5.11172 7.09097 5.37666 7.09097ZM5.37666 24.4676H12.6234C16.1143 24.4676 17.6104 23.5014 17.626 20.7429C17.626 18.0156 16.0832 17.0338 12.6234 17.0338H5.37666C5.11172 17.0338 4.90913 17.252 4.90913 17.5014V24.0001C4.90913 24.265 5.11172 24.4676 5.37666 24.4676Z" fill="white"/>
<path fill-rule="evenodd" clip-rule="evenodd" d="M42.5455 14.8364C44.2286 13.9949 45.2728 12.1715 45.2728 9.94291C45.2728 6.12473 42.2962 3.53772 38.104 3.53772H26.0416C25.7767 3.53772 25.5741 3.74032 25.5741 4.00525V27.5533C25.5741 27.8182 25.7767 28.0208 26.0416 28.0208H37.5741C43.3403 28.0208 46.3793 25.5429 46.3793 20.6806C46.3949 15.9429 42.5455 14.8364 42.5455 14.8364ZM30.1092 7.09097H37.2624C39.8962 7.09097 41.2364 8.21304 41.2364 10.3014C41.2364 12.3897 39.8962 13.5117 37.2624 13.5117H30.1092C29.8442 13.5117 29.6416 13.3091 29.6416 13.0442V7.5585C29.6416 7.29356 29.8442 7.09097 30.1092 7.09097ZM30.0936 24.4676H37.3403C40.8312 24.4676 42.3429 23.5014 42.3429 20.7429C42.3429 18.0156 40.8001 17.0338 37.3403 17.0338H30.0936C29.8286 17.0338 29.626 17.252 29.626 17.5014V24.0001C29.626 24.265 29.8442 24.4676 30.0936 24.4676Z" fill="white"/>
</svg>
