<svg width="47" height="36" viewBox="0 0 47 36" fill="none" xmlns="http://www.w3.org/2000/svg">
<path fill-rule="evenodd" clip-rule="evenodd" d="M43.7269 30.2731V33.6722V35.5581H42.9065V35.1003C42.6465 35.4396 42.2522 35.6527 41.7159 35.6527C40.659 35.6527 39.8303 34.824 39.8303 33.6731C39.8303 32.5223 40.6594 31.6936 41.7159 31.6936C42.2522 31.6936 42.6465 31.9065 42.9065 32.246V30.2731H43.7269ZM12.9775 31.7866V33.6722H12.9765V35.5581H12.1578V35.1003C11.8978 35.4396 11.5032 35.6527 10.9671 35.6527C9.91019 35.6527 9.08153 34.824 9.08153 33.6731C9.08153 32.5223 9.91065 31.6936 10.9671 31.6936C11.5034 31.6936 11.8978 31.9065 12.1578 32.246V31.7866H12.9775ZM9.92558 33.6722C9.92558 33.0096 10.3597 32.4653 11.0691 32.4653C11.7471 32.4653 12.2046 32.9862 12.2046 33.6722C12.2046 34.3583 11.7471 34.8792 11.0691 34.8792C10.3597 34.8792 9.92558 34.3348 9.92558 33.6722ZM45.3629 35.1244C45.2909 35.0537 45.194 35.0141 45.093 35.0142L45.0942 35.0103C45.0424 35.0099 44.9912 35.0201 44.9435 35.0402C44.8978 35.0584 44.8563 35.0858 44.8215 35.1205C44.7868 35.1545 44.7592 35.195 44.7402 35.2397C44.7006 35.3325 44.7006 35.4375 44.7402 35.5303C44.7589 35.576 44.7861 35.6178 44.8204 35.6534C44.8557 35.6876 44.897 35.7148 44.9423 35.7338C44.99 35.7538 45.0413 35.764 45.093 35.7636C45.1441 35.7639 45.1948 35.7538 45.2418 35.7338C45.2867 35.7144 45.3276 35.6872 45.3629 35.6534C45.3972 35.6191 45.4248 35.5786 45.4442 35.5342C45.4838 35.4414 45.4838 35.3364 45.4442 35.2436C45.4252 35.1989 45.3976 35.1584 45.3629 35.1244ZM45.093 35.678C45.1318 35.6783 45.1702 35.6705 45.2058 35.655C45.2401 35.6402 45.2712 35.6191 45.2977 35.5927C45.3241 35.5664 45.3453 35.5352 45.3599 35.5009C45.39 35.4281 45.39 35.3463 45.3599 35.2735C45.345 35.2393 45.3239 35.2081 45.2977 35.1816C45.2712 35.1553 45.2401 35.1342 45.2058 35.1194C45.17 35.1047 45.1317 35.0974 45.093 35.0978C45.0537 35.0974 45.0147 35.1048 44.9782 35.1194C44.9431 35.1339 44.9112 35.155 44.8842 35.1816C44.8012 35.2668 44.7771 35.3934 44.8229 35.5032C44.8369 35.5376 44.8578 35.5689 44.8842 35.595C44.9113 35.6216 44.9431 35.6428 44.9782 35.6573C45.0145 35.6728 45.0536 35.6806 45.093 35.6802V35.678ZM45.2189 35.2402C45.1891 35.2186 45.1527 35.2081 45.116 35.2103L45.1171 35.2106H44.9564V35.5581H45.0303V35.4543H45.0859L45.1702 35.5581H45.2586L45.1626 35.4486C45.1716 35.4447 45.1803 35.4391 45.1885 35.4316C45.1937 35.4257 45.1981 35.4184 45.2014 35.4101C45.2102 35.4053 45.2184 35.3995 45.226 35.3929C45.2455 35.3744 45.256 35.3484 45.2549 35.3215C45.2565 35.2902 45.2431 35.26 45.2189 35.2402ZM45.2014 35.4101C45.1838 35.4198 45.1641 35.4257 45.1438 35.4271L45.1626 35.4486C45.1529 35.4526 45.143 35.4546 45.133 35.4543H45.0859L45.0645 35.4281H45.0303V35.4543H45.0294V35.2763V35.2745H45.133C45.1525 35.2732 45.1718 35.2811 45.1885 35.2972C45.2022 35.312 45.2101 35.3371 45.2093 35.3635C45.2098 35.3802 45.2069 35.3964 45.2014 35.4101ZM40.6741 33.6722C40.6741 33.0096 41.1082 32.4653 41.8179 32.4653C42.4966 32.4653 42.9534 32.9862 42.9534 33.6722C42.9534 34.3583 42.4966 34.8792 41.8179 34.8792C41.1084 34.8792 40.6741 34.3348 40.6741 33.6722ZM23.1513 32.4265C23.6794 32.4266 24.0185 32.7577 24.1051 33.3408H22.1492C22.2367 32.7965 22.5672 32.4265 23.1513 32.4265ZM21.29 33.6711C21.29 32.4954 22.0628 31.6915 23.1676 31.6915L23.1671 31.6913C24.2222 31.6913 24.9489 32.4956 24.9572 33.6708C24.9572 33.7791 24.9492 33.8804 24.9413 33.9806L24.9409 33.986H22.1418C22.2601 34.6646 22.7411 34.9092 23.2693 34.9092C23.6476 34.9092 24.05 34.7675 24.366 34.5149L24.7677 35.1224C24.3102 35.5089 23.7902 35.6506 23.2225 35.6506C22.0938 35.6506 21.29 34.8697 21.29 33.6711ZM33.0637 33.6708C33.0637 33.0082 33.4978 32.4639 34.2072 32.4639C34.8852 32.4639 35.3427 32.9848 35.3427 33.6708C35.3427 34.3569 34.8852 34.8778 34.2072 34.8778C33.4978 34.8778 33.0635 34.3334 33.0635 33.6708H33.0637ZM36.1153 31.7866V33.6708L36.1156 33.6722V35.5581H35.2961V35.1003C35.0352 35.4396 34.6418 35.6527 34.1055 35.6527C33.0485 35.6527 32.2199 34.824 32.2199 33.6731C32.2199 32.5223 33.049 31.6936 34.1055 31.6936C34.6418 31.6936 35.0352 31.9065 35.2961 32.246V31.7866H36.1153ZM28.4346 33.6708C28.4346 34.8144 29.2307 35.6504 30.4457 35.6504C31.0134 35.6504 31.3917 35.5241 31.8007 35.2009L31.4071 34.5383C31.0993 34.7595 30.7762 34.8778 30.4195 34.8778C29.7651 34.8697 29.284 34.3966 29.284 33.6708C29.284 32.9451 29.7651 32.4722 30.4195 32.4639C30.7752 32.4639 31.0984 32.5822 31.4071 32.8034L31.8007 32.1408C31.391 31.8176 31.0127 31.6913 30.4457 31.6913C29.2307 31.6913 28.4346 32.5271 28.4346 33.6708ZM38.0081 32.2437C38.221 31.9125 38.529 31.6913 39.0019 31.6913L39.0014 31.692C39.1675 31.692 39.404 31.7235 39.5855 31.7949L39.3328 32.5675C39.1699 32.5023 38.9957 32.4701 38.8202 32.4726C38.2844 32.4726 38.0163 32.8192 38.0163 33.443V35.556H37.1957V31.7866H38.0081V32.2437ZM17.03 32.0863C16.6357 31.8263 16.0923 31.692 15.4928 31.692C14.5379 31.692 13.923 32.1497 13.923 32.8987C13.923 33.5133 14.3808 33.8925 15.2237 34.0108L15.6109 34.0659C16.0604 34.129 16.2726 34.2473 16.2726 34.4602C16.2726 34.7517 15.974 34.918 15.4134 34.918C14.8456 34.918 14.4359 34.7365 14.1596 34.5236L13.7744 35.1628C14.2239 35.494 14.7916 35.652 15.4065 35.652C16.4951 35.652 17.126 35.1394 17.126 34.4216C17.126 33.759 16.6295 33.4125 15.8091 33.2942L15.4228 33.2381C15.0679 33.1922 14.7836 33.1208 14.7836 32.8681C14.7836 32.5925 15.0516 32.4267 15.5013 32.4267C15.9825 32.4267 16.4483 32.6082 16.6766 32.7499L17.0314 32.0873L17.03 32.0863ZM26.6138 32.245C26.8258 31.9139 27.1338 31.6927 27.6067 31.6927L27.6062 31.692C27.7723 31.692 28.0088 31.7235 28.1903 31.7949L27.9376 32.5675C27.7747 32.5023 27.6005 32.4701 27.425 32.4726C26.8892 32.4726 26.6212 32.8192 26.6212 33.443V35.556H25.8015V31.7866H26.6138V32.245ZM20.6118 31.7866H19.2714V30.6431H18.4427V31.7866H17.6782V32.5358H18.4427V34.2554C18.4427 35.13 18.7822 35.6509 19.7519 35.6509C20.1076 35.6509 20.5174 35.5406 20.7774 35.3594L20.5406 34.6575C20.296 34.7992 20.0279 34.8707 19.8148 34.8707C19.4051 34.8707 19.2714 34.618 19.2714 34.2397V32.5365H20.6118V31.7866ZM8.35668 33.1913V35.5569L7.52619 35.5551V33.4572C7.52619 32.8183 7.25908 32.4635 6.69937 32.4635C6.15527 32.4635 5.777 32.8112 5.777 33.4655V35.5555H4.94834V33.4577C4.94834 32.8188 4.67297 32.4639 4.12864 32.4639C3.56824 32.4639 3.20536 32.8116 3.20536 33.466V35.556H2.37854V31.7866H3.19893V32.2526C3.50692 31.8112 3.90035 31.6929 4.30297 31.6929C4.87898 31.6929 5.28872 31.9455 5.54871 32.3635C5.8962 31.8346 6.39252 31.6849 6.87369 31.6929C7.78893 31.7009 8.35668 32.3004 8.35668 33.1913Z" fill="#1B1B1B"/>
<path fill-rule="evenodd" clip-rule="evenodd" d="M46.0997 22.467V23.7624H45.9484V22.7844L45.7149 23.6285H45.556L45.3225 22.7866V23.7624H45.1692V22.467H45.3857L45.6341 23.356L45.8838 22.467H46.0997ZM44.7301 22.6889V23.7624H44.7287H44.5768V22.6889H44.3004V22.4703H45.0065V22.6889H44.7301Z" fill="#F79410"/>
<path d="M29.1815 25.3823H16.7594V3.05811H29.1817L29.1815 25.3823Z" fill="#FF5F00"/>
<path d="M17.547 14.2206C17.547 9.69217 19.6673 5.65821 22.9691 3.05854C20.4698 1.08783 17.3786 0.0182619 14.1958 0.0229647C6.35549 0.0229647 0 6.37938 0 14.2206C0 22.0619 6.35549 28.4183 14.1958 28.4183C17.3787 28.423 20.47 27.3535 22.9693 25.3827C19.6678 22.7835 17.547 18.7493 17.547 14.2206Z" fill="#EB001B"/>
<path d="M45.9402 14.2206C45.9402 22.0619 39.5847 28.4183 31.7444 28.4183C28.5612 28.423 25.4695 27.3534 22.9697 25.3827C26.2724 22.783 28.3928 18.7493 28.3928 14.2206C28.3928 9.69194 26.2724 5.65821 22.9697 3.05854C25.4695 1.08789 28.561 0.0183443 31.7441 0.0229641C39.5845 0.0229641 45.94 6.37938 45.94 14.2206" fill="#F79E1B"/>
</svg>
