<svg width="60" height="47" viewBox="0 0 60 47" fill="none" xmlns="http://www.w3.org/2000/svg">
<path fill-rule="evenodd" clip-rule="evenodd" d="M57.0878 39.5233V43.9611V46.4232H56.0168V45.8256C55.6773 46.2684 55.1625 46.5467 54.4623 46.5467C53.0824 46.5467 52.0006 45.4648 52.0006 43.9623C52.0006 42.4597 53.083 41.3779 54.4623 41.3779C55.1625 41.3779 55.6773 41.6558 56.0168 42.099V39.5233H57.0878ZM16.9427 41.4993V43.9611H16.9415V46.4232H15.8725V45.8256C15.5331 46.2684 15.018 46.5467 14.3181 46.5467C12.9382 46.5467 11.8563 45.4648 11.8563 43.9623C11.8563 42.4597 12.9388 41.3779 14.3181 41.3779C15.0183 41.3779 15.5331 41.6558 15.8725 42.099V41.4993H16.9427ZM12.9583 43.9611C12.9583 43.096 13.525 42.3854 14.4513 42.3854C15.3364 42.3854 15.9337 43.0654 15.9337 43.9611C15.9337 44.8567 15.3364 45.5368 14.4513 45.5368C13.525 45.5368 12.9583 44.8262 12.9583 43.9611ZM59.2237 45.857C59.1297 45.7647 59.0031 45.713 58.8713 45.7131L58.8728 45.708C58.8053 45.7075 58.7384 45.7208 58.6761 45.747C58.6165 45.7708 58.5623 45.8065 58.5169 45.852C58.4716 45.8963 58.4355 45.9492 58.4108 46.0076C58.359 46.1287 58.359 46.2657 58.4108 46.3869C58.4351 46.4466 58.4706 46.5012 58.5154 46.5476C58.5615 46.5922 58.6155 46.6278 58.6746 46.6526C58.7369 46.6788 58.8038 46.692 58.8713 46.6915C58.9381 46.6919 59.0042 46.6787 59.0656 46.6526C59.1241 46.6273 59.1777 46.5917 59.2237 46.5476C59.2685 46.5028 59.3045 46.45 59.3298 46.392C59.3816 46.2708 59.3816 46.1338 59.3298 46.0127C59.3051 45.9543 59.269 45.9014 59.2237 45.857ZM58.8713 46.5797C58.922 46.5802 58.9721 46.5699 59.0186 46.5497C59.0633 46.5304 59.104 46.5029 59.1385 46.4684C59.1731 46.4341 59.2006 46.3933 59.2198 46.3485C59.2591 46.2535 59.2591 46.1467 59.2198 46.0517C59.2004 46.007 59.1728 45.9663 59.1385 45.9317C59.104 45.8973 59.0633 45.8697 59.0186 45.8505C58.9719 45.8313 58.9218 45.8217 58.8713 45.8223C58.82 45.8218 58.7691 45.8314 58.7214 45.8505C58.6757 45.8694 58.634 45.897 58.5988 45.9317C58.4903 46.0429 58.4588 46.2082 58.5187 46.3515C58.537 46.3965 58.5642 46.4373 58.5988 46.4714C58.634 46.5062 58.6757 46.5338 58.7214 46.5527C58.7688 46.5729 58.8198 46.5831 58.8713 46.5827V46.5797ZM59.0357 46.0082C58.9967 45.98 58.9493 45.9662 58.9013 45.9692L58.9028 45.9695H58.6929V46.4232H58.7895V46.2535H58.8342L58.9721 46.4232H59.0875L58.9376 46.2523C58.9773 46.2493 59.0149 46.2337 59.045 46.2076C59.0704 46.1834 59.0842 46.1494 59.0827 46.1143C59.0848 46.0735 59.0673 46.0341 59.0357 46.0082ZM58.7883 46.2027V46.0544V46.0529H58.9001C58.9212 46.0518 58.942 46.0584 58.9601 46.0718C58.9748 46.0841 58.9834 46.1051 58.9826 46.1271C58.9834 46.1495 58.9749 46.1709 58.9601 46.1838C58.9418 46.1966 58.9211 46.2032 58.9001 46.2027H58.7883ZM53.1022 43.9611C53.1022 43.096 53.6689 42.3854 54.5955 42.3854C55.4815 42.3854 56.0779 43.0654 56.0779 43.9611C56.0779 44.8567 55.4815 45.5368 54.5955 45.5368C53.6692 45.5368 53.1022 44.8262 53.1022 43.9611ZM30.2252 42.3347C30.9147 42.3348 31.3574 42.7672 31.4704 43.5284H28.9169C29.0312 42.8178 29.4626 42.3347 30.2252 42.3347ZM27.7952 43.9596C27.7952 42.4247 28.8042 41.3752 30.2465 41.3752L30.2459 41.3749C31.6234 41.3749 32.5721 42.425 32.5829 43.9593C32.5829 44.1007 32.5725 44.2329 32.5621 44.3638L32.5616 44.3707H28.9073C29.0617 45.2567 29.6896 45.5761 30.3793 45.5761C30.8731 45.5761 31.3985 45.3911 31.8111 45.0612L32.3355 45.8544C31.7382 46.359 31.0593 46.544 30.3181 46.544C28.8447 46.544 27.7952 45.5245 27.7952 43.9596ZM43.1664 43.9593C43.1664 43.0942 43.7331 42.3836 44.6593 42.3836C45.5445 42.3836 46.1418 43.0636 46.1418 43.9593C46.1418 44.8549 45.5445 45.535 44.6593 45.535C43.7331 45.535 43.1661 44.8244 43.1661 43.9593H43.1664ZM47.1505 41.4993V43.9593L47.1508 43.9611V46.4232H46.0809V45.8256C45.7403 46.2684 45.2267 46.5467 44.5265 46.5467C43.1466 46.5467 42.0647 45.4648 42.0647 43.9623C42.0647 42.4597 43.1472 41.3779 44.5265 41.3779C45.2267 41.3779 45.7403 41.6558 46.0809 42.099V41.4993H47.1505ZM37.1229 43.9593C37.1229 45.4523 38.1622 46.5437 39.7484 46.5437C40.4896 46.5437 40.9835 46.3788 41.5175 45.9569L41.0036 45.0918C40.6018 45.3806 40.1799 45.535 39.7142 45.535C38.8599 45.5245 38.2318 44.9068 38.2318 43.9593C38.2318 43.0118 38.8599 42.3944 39.7142 42.3836C40.1787 42.3836 40.6006 42.538 41.0036 42.8268L41.5175 41.9617C40.9826 41.5398 40.4887 41.3749 39.7484 41.3749C38.1622 41.3749 37.1229 42.466 37.1229 43.9593ZM49.6216 42.096C49.8995 41.6636 50.3016 41.3749 50.919 41.3749L50.9184 41.3758C51.1352 41.3758 51.4441 41.4169 51.6809 41.5101L51.3511 42.5188C51.1384 42.4338 50.9109 42.3917 50.6818 42.395C49.9823 42.395 49.6324 42.8475 49.6324 43.6618V46.4205H48.561V41.4993H49.6216V42.096ZM22.2336 41.8906C21.7187 41.5512 21.0093 41.3758 20.2267 41.3758C18.9799 41.3758 18.1772 41.9734 18.1772 42.9512C18.1772 43.7536 18.7748 44.2487 19.8752 44.4031L20.3808 44.475C20.9676 44.5575 21.2447 44.7119 21.2447 44.9899C21.2447 45.3704 20.8549 45.5875 20.1229 45.5875C19.3817 45.5875 18.8468 45.3506 18.486 45.0726L17.9832 45.9071C18.57 46.3395 19.3112 46.5458 20.1139 46.5458C21.5352 46.5458 22.3589 45.8765 22.3589 44.9395C22.3589 44.0744 21.7106 43.622 20.6396 43.4675L20.1352 43.3944C19.6719 43.3344 19.3007 43.2412 19.3007 42.9113C19.3007 42.5515 19.6507 42.335 20.2378 42.335C20.8659 42.335 21.474 42.5719 21.7721 42.7569L22.2354 41.8918L22.2336 41.8906ZM34.7457 42.0978C35.0225 41.6654 35.4246 41.3767 36.042 41.3767L36.0414 41.3758C36.2581 41.3758 36.567 41.4169 36.8039 41.5101L36.474 42.5188C36.2613 42.4338 36.0339 42.3917 35.8048 42.395C35.1052 42.395 34.7553 42.8475 34.7553 43.6618V46.4205H33.6851V41.4993H34.7457V42.0978ZM26.9097 41.4993H25.1598V40.0064H24.0779V41.4993H23.0797V42.4774H24.0779V44.7224C24.0779 45.8642 24.5211 46.5443 25.7871 46.5443C26.2516 46.5443 26.7865 46.4004 27.1259 46.1638L26.8168 45.2475C26.4974 45.4325 26.1475 45.5257 25.8692 45.5257C25.3343 45.5257 25.1598 45.1959 25.1598 44.702V42.4783H26.9097V41.4993ZM10.91 43.3332V46.4217L9.82576 46.4193V43.6804C9.82576 42.8463 9.47704 42.383 8.7463 42.383C8.03596 42.383 7.54211 42.837 7.54211 43.6912V46.4199H6.46025V43.681C6.46025 42.8469 6.10073 42.3836 5.39008 42.3836C4.65845 42.3836 4.18468 42.8376 4.18468 43.6918V46.4205H3.10522V41.4993H4.17629V42.1077C4.57839 41.5314 5.09203 41.377 5.61767 41.377C6.36969 41.377 6.90462 41.7068 7.24406 42.2526C7.69773 41.562 8.3457 41.3665 8.97389 41.377C10.1688 41.3875 10.91 42.1701 10.91 43.3332Z" fill="white"/>
<path fill-rule="evenodd" clip-rule="evenodd" d="M59.3985 29.332V30.0517H59.2671V29.5083L59.0644 29.9773H58.9265L58.7238 29.5095V30.0517H58.5907V29.332H58.7787L58.9943 29.8259L59.2111 29.332H59.3985ZM58.2096 29.4553V30.0517H58.2084H58.0764V29.4553H57.8365V29.3338H58.4494V29.4553H58.2096Z" fill="#F79410"/>
<path d="M38.0981 33.138H21.8804V3.99255H38.0984L38.0981 33.138Z" fill="#FF5F00"/>
<path d="M22.9085 18.5659C22.9085 12.6537 25.6768 7.38717 29.9874 3.99317C26.7245 1.4203 22.6887 0.0239097 18.5334 0.0300495C8.29745 0.0300495 0 8.3287 0 18.5659C0 28.8031 8.29745 37.1017 18.5334 37.1017C22.6888 37.1079 26.7247 35.7115 29.9877 33.1386C25.6774 29.7452 22.9085 24.4783 22.9085 18.5659Z" fill="#EB001B"/>
<path d="M59.9775 18.5659C59.9775 28.8031 51.68 37.1017 41.4441 37.1017C37.2882 37.1078 33.2519 35.7115 29.9883 33.1386C34.3001 29.7446 37.0683 24.4783 37.0683 18.5659C37.0683 12.6534 34.3001 7.38717 29.9883 3.99317C33.2518 1.42037 37.288 0.0240174 41.4438 0.0300488C51.6797 0.0300488 59.9772 8.3287 59.9772 18.5659" fill="#F79E1B"/>
</svg>
