<svg width="175" height="45" viewBox="0 0 175 45" fill="none" xmlns="http://www.w3.org/2000/svg">
<path d="M32.0274 3.33753C29.9721 1.00154 26.2567 4.67116e-05 21.5039 4.67116e-05H7.70937C6.73735 -0.000469227 5.90938 0.704154 5.75714 1.66144L0.01589 37.9881C-0.0379859 38.3292 0.0606016 38.6766 0.28568 38.939C0.510758 39.2013 0.839755 39.3523 1.186 39.352H9.70211L11.841 25.8245L11.7747 26.2481C11.924 25.2927 12.7486 24.5879 13.7183 24.5867H17.7652C25.7152 24.5867 31.9403 21.3668 33.7587 12.0522C33.8127 11.7767 33.8593 11.5086 33.8999 11.2466C34.4401 7.80383 33.8962 5.46049 32.0287 3.33875" fill="#003087"/>
<path fill-rule="evenodd" clip-rule="evenodd" d="M125.662 11.7302L135.185 11.7302L135.186 11.729C138.372 11.729 140.772 12.5689 142.127 14.1556C143.358 15.5991 143.767 17.6608 143.341 20.2833C142.396 26.2837 138.776 29.3089 132.502 29.3089H129.489C128.838 29.3089 128.283 29.7828 128.182 30.4231L127.09 37.3282C127.018 37.7763 126.63 38.1069 126.175 38.1069H121.288C121.056 38.1064 120.836 38.005 120.686 37.8292C120.535 37.6534 120.469 37.4207 120.505 37.1923L124.353 12.8444C124.455 12.2028 125.01 11.7305 125.662 11.7302ZM130.628 24.0321C133.153 24.0321 135.763 24.0321 136.283 20.6236C136.473 19.4274 136.322 18.5606 135.822 17.9766C134.984 17.0008 133.361 17.0008 131.642 17.0008H130.983C130.593 17.0008 130.261 17.2837 130.2 17.6681L129.192 24.0321H130.628Z" fill="#009CDE"/>
<path fill-rule="evenodd" clip-rule="evenodd" d="M91.1661 20.5134H95.7262L95.725 20.5147C95.9573 20.5144 96.1781 20.6155 96.3292 20.7914C96.4804 20.9673 96.5467 21.2004 96.5108 21.4292L94.0454 36.9939C93.9434 37.6367 93.3885 38.1081 92.7377 38.1081H88.6319C88.3997 38.1084 88.179 38.0072 88.028 37.8313C87.8771 37.6553 87.811 37.4222 87.8474 37.1935L88.0512 35.93C88.0512 35.93 85.7994 38.5305 81.7378 38.5305C79.3718 38.5305 77.3864 37.851 75.9953 36.2189C74.4802 34.4425 73.8613 31.8971 74.2972 29.2318C75.1346 23.8938 79.4381 20.0861 84.4758 20.0861C86.6736 20.0861 88.875 20.5649 89.8622 21.9936L90.1814 22.454L90.3803 21.1831C90.4409 20.7973 90.7744 20.513 91.1661 20.5134ZM57.739 11.7302L67.2619 11.7302L67.2631 11.729C70.4493 11.729 72.8497 12.5689 74.2039 14.1556C75.4354 15.5991 75.8443 17.6608 75.4182 20.2833C74.4728 26.2837 70.8532 29.3102 64.5791 29.3102H61.5661C60.9153 29.3102 60.3603 29.7828 60.2597 30.4243L59.2197 36.9928C59.1178 37.6343 58.5641 38.1069 57.9133 38.1069H53.3655C53.1335 38.1069 52.9131 38.0056 52.7624 37.8296C52.6118 37.6537 52.5459 37.4208 52.5821 37.1923L56.4313 12.8444C56.5333 12.2028 57.0882 11.7302 57.739 11.7302ZM62.7043 24.0321C65.2299 24.0321 67.8402 24.0321 68.3608 20.6236C68.5499 19.4275 68.3989 18.5606 67.8979 17.9766C67.0605 17.0009 65.4374 17.0009 63.7184 17.0009H63.0591C62.6686 17.0009 62.3371 17.2837 62.2757 17.6681L61.2677 24.0321H62.7043ZM89.3712 29.3652C88.9292 31.9632 86.8627 33.7079 84.2242 33.7079C82.9018 33.7079 81.8422 33.2831 81.162 32.4799C80.4867 31.6841 80.2338 30.5492 80.4474 29.2869C80.8575 26.7109 82.9595 24.9112 85.5576 24.9112C86.8529 24.9112 87.9027 25.3397 88.5976 26.1502C89.2963 26.9668 89.5713 28.1079 89.3712 29.3652Z" fill="#003087"/>
<path fill-rule="evenodd" clip-rule="evenodd" d="M159.089 20.5134H163.649L163.648 20.5147C163.88 20.5144 164.101 20.6155 164.252 20.7914C164.403 20.9673 164.47 21.2004 164.434 21.4292L161.968 36.9939C161.865 37.6367 161.31 38.1081 160.659 38.1081H156.555C156.323 38.1085 156.102 38.0073 155.952 37.8312C155.801 37.6551 155.736 37.4219 155.773 37.1935L155.977 35.93C155.977 35.93 153.725 38.5305 149.662 38.5305C147.296 38.5305 145.311 37.851 143.919 36.2189C142.404 34.4425 141.784 31.8971 142.22 29.2318C143.059 23.8938 147.362 20.0861 152.399 20.0861C154.596 20.0861 156.798 20.5649 157.785 21.9936L158.104 22.454L158.303 21.1831C158.364 20.7973 158.697 20.513 159.089 20.5134ZM152.147 33.7079C154.786 33.7079 156.852 31.9632 157.294 29.3652C157.494 28.1078 157.219 26.9668 156.52 26.1502C155.825 25.3397 154.776 24.9112 153.48 24.9112C150.881 24.9112 148.78 26.7109 148.37 29.2869C148.157 30.5491 148.409 31.6841 149.085 32.4799C149.765 33.283 150.825 33.7079 152.147 33.7079Z" fill="#009CDE"/>
<path d="M120.014 20.5147H115.429C114.991 20.5147 114.582 20.7314 114.336 21.0938L108.013 30.379L105.333 21.4562C105.165 20.8973 104.65 20.5143 104.064 20.5134H99.5596C99.3033 20.5136 99.0629 20.637 98.9138 20.8449C98.7647 21.0528 98.7254 21.3196 98.8082 21.5614L103.855 36.334L99.1078 43.0127C98.9368 43.2543 98.9151 43.5708 99.0514 43.8335C99.1878 44.0961 99.4595 44.2612 99.7561 44.2615H104.336C104.768 44.2615 105.174 44.0497 105.422 43.6946L120.665 21.7573C120.833 21.5156 120.853 21.2005 120.717 20.9395C120.58 20.6785 120.309 20.5148 120.014 20.5147" fill="#003087"/>
<path d="M169.023 12.3999L165.114 37.1935C165.078 37.4222 165.144 37.655 165.295 37.8309C165.446 38.0067 165.666 38.108 165.898 38.1081H169.828C170.479 38.1081 171.034 37.6355 171.136 36.994L174.99 12.6448C175.027 12.4161 174.96 12.183 174.81 12.007C174.659 11.831 174.438 11.7299 174.206 11.7302H169.808C169.416 11.7292 169.083 12.0132 169.023 12.3987" fill="#009CDE"/>
<path d="M32.0274 3.33753C29.9721 1.00154 26.2567 4.67116e-05 21.5039 4.67116e-05H7.70937C6.73735 -0.000469227 5.90938 0.704154 5.75714 1.66144L0.01589 37.9881C-0.0379859 38.3292 0.0606016 38.6766 0.28568 38.939C0.510758 39.2013 0.839755 39.3523 1.186 39.352H9.70211L11.841 25.8245L11.7747 26.2481C11.924 25.2927 12.7486 24.5879 13.7183 24.5867H17.7652C25.7152 24.5867 31.9403 21.3668 33.7587 12.0522C33.8127 11.7767 33.8593 11.5086 33.8999 11.2466C34.4401 7.80383 33.8962 5.46049 32.0287 3.33875" fill="#003087"/>
<path d="M14.1382 11.2919C14.2715 10.4555 14.9943 9.83958 15.8436 9.83865H26.6582C27.9388 9.83865 29.1334 9.9219 30.225 10.0958C30.8218 10.1915 31.4122 10.3231 31.993 10.49C32.6527 10.6749 33.2909 10.9285 33.8974 11.2466C34.4401 7.80261 33.8949 5.4605 32.0274 3.33754C29.9708 1.00277 26.2567 0.00127718 21.5038 0.00127718H7.7081C6.73701 0.00196538 5.91042 0.706303 5.75833 1.66267L0.0146192 37.9857C-0.0396215 38.3267 0.0586267 38.6743 0.283475 38.9369C0.508324 39.1995 0.837219 39.3507 1.1835 39.3508H9.70084L11.8397 25.8221L14.1382 11.2919V11.2919Z" fill="#003087"/>
<path d="M33.8985 11.2454C33.8563 11.5147 33.8093 11.7833 33.7573 12.051C31.9389 21.3643 25.7139 24.5855 17.7638 24.5855H13.7157C12.7461 24.5862 11.9216 25.2914 11.7733 26.2469L9.70074 39.3495L9.11139 43.0665C9.06397 43.3652 9.1501 43.6696 9.34709 43.8994C9.54408 44.1293 9.83216 44.2616 10.1354 44.2615H17.3144C18.1641 44.2615 18.886 43.6444 19.0198 42.8082L19.0898 42.4434L20.4429 33.8927L20.5288 33.4202C20.6617 32.5831 21.3855 31.9667 22.2355 31.9669H23.3098C30.2642 31.9669 35.7095 29.151 37.3008 21.0019C37.9638 17.5983 37.62 14.7543 35.8642 12.7574C35.3067 12.1383 34.6405 11.6259 33.8985 11.2454" fill="#009CDE"/>
<path d="M31.9943 10.4899C31.7168 10.4079 31.4307 10.3344 31.1361 10.2695C30.8414 10.2046 30.5369 10.1471 30.225 10.0981C29.1323 9.92058 27.9388 9.83733 26.657 9.83733L15.8436 9.83733C14.9932 9.83629 14.269 10.4539 14.1382 11.2918L11.8397 25.8244L11.7734 26.2468C11.9217 25.2913 12.7462 24.5861 13.7158 24.5854H17.7639C25.714 24.5854 31.939 21.3655 33.7574 12.0509C33.8115 11.7754 33.8569 11.5085 33.8986 11.2453C33.4184 10.9947 32.9182 10.7842 32.4032 10.616C32.2693 10.5719 32.133 10.5303 31.9943 10.4887" fill="#012169"/>
</svg>
