<svg width="117" height="30" viewBox="0 0 117 30" fill="none" xmlns="http://www.w3.org/2000/svg">
<path d="M21.482 2.44704C20.1208 0.900013 17.6603 0.236771 14.5127 0.236771H5.37719C4.73347 0.236429 4.18514 0.70307 4.08432 1.33704L0.282136 25.3946C0.246457 25.6205 0.311747 25.8506 0.460806 26.0243C0.609866 26.1981 0.827746 26.298 1.05705 26.2979H6.6969L8.11337 17.3392L8.06946 17.6197C8.16835 16.987 8.71444 16.5202 9.35664 16.5195H12.0367C17.3017 16.5195 21.4243 14.387 22.6285 8.21839C22.6643 8.03596 22.6952 7.85839 22.722 7.68488C23.0798 5.40488 22.7196 3.85299 21.4828 2.44785" fill="#003087"/>
<path fill-rule="evenodd" clip-rule="evenodd" d="M83.4919 8.00516H89.7985L89.7993 8.00435C91.9094 8.00435 93.4991 8.56056 94.3959 9.61137C95.2115 10.5673 95.4823 11.9327 95.2001 13.6695C94.574 17.6433 92.1769 19.6468 88.0218 19.6468H86.0264C85.5955 19.6468 85.2279 19.9606 85.1612 20.3846L84.4376 24.9576C84.3904 25.2543 84.1335 25.4733 83.8318 25.4733H80.5955C80.442 25.473 80.2962 25.4058 80.1965 25.2894C80.0968 25.1729 80.053 25.0189 80.0768 24.8676L82.6251 8.743C82.693 8.31811 83.0604 8.00537 83.4919 8.00516ZM86.781 16.1522C88.4528 16.1522 90.1815 16.1522 90.5263 13.8949C90.6515 13.1027 90.5515 12.5287 90.2205 12.1419C89.666 11.4957 88.591 11.4957 87.4526 11.4957L87.016 11.4957C86.7574 11.4957 86.5379 11.683 86.4972 11.9376L85.8296 16.1522H86.781Z" fill="#009CDE"/>
<path fill-rule="evenodd" clip-rule="evenodd" d="M60.6471 13.8219H63.6671L63.6663 13.8227C63.8201 13.8225 63.9663 13.8895 64.0664 14.006C64.1665 14.1225 64.2104 14.2768 64.1867 14.4284L62.5539 24.7362C62.4864 25.1619 62.1189 25.4741 61.6879 25.4741H58.9688C58.815 25.4743 58.6689 25.4073 58.5689 25.2908C58.4689 25.1742 58.4252 25.0198 58.4492 24.8684L58.5842 24.0316C58.5842 24.0316 57.0929 25.7538 54.4031 25.7538C52.8362 25.7538 51.5214 25.3038 50.6001 24.223C49.5967 23.0465 49.1869 21.3608 49.4756 19.5957C50.0301 16.0605 52.8801 13.5389 56.2164 13.5389C57.6719 13.5389 59.1298 13.8559 59.7836 14.8022L59.995 15.107L60.1267 14.2654C60.1668 14.0099 60.3877 13.8216 60.6471 13.8219ZM38.5097 8.00514H44.8163L44.8172 8.00432C46.9272 8.00432 48.5169 8.56054 49.4138 9.61135C50.2293 10.5673 50.5001 11.9327 50.218 13.6695C49.5918 17.6432 47.1947 19.6476 43.0397 19.6476H41.0443C40.6133 19.6476 40.2458 19.9605 40.1791 20.3854L39.4904 24.7354C39.4229 25.1603 39.0562 25.4732 38.6252 25.4732H35.6134C35.4597 25.4732 35.3138 25.4061 35.214 25.2896C35.1142 25.1731 35.0706 25.0189 35.0946 24.8676L37.6438 8.74297C37.7112 8.31811 38.0788 8.00514 38.5097 8.00514ZM41.798 16.1522C43.4706 16.1522 45.1993 16.1522 45.5441 13.8949C45.6693 13.1027 45.5693 12.5286 45.2375 12.1419C44.683 11.4957 43.608 11.4957 42.4697 11.4957L42.033 11.4957C41.7744 11.4957 41.5549 11.683 41.5142 11.9376L40.8467 16.1522H41.798ZM59.4583 19.6841C59.1656 21.4046 57.7971 22.56 56.0497 22.56C55.174 22.56 54.4722 22.2786 54.0218 21.7468C53.5745 21.2197 53.407 20.4681 53.5485 19.6322C53.8201 17.9262 55.2122 16.7343 56.9328 16.7343C57.7906 16.7343 58.4858 17.0181 58.9461 17.5549C59.4087 18.0957 59.5909 18.8514 59.4583 19.6841Z" fill="#003087"/>
<path fill-rule="evenodd" clip-rule="evenodd" d="M105.629 13.8219H108.649L108.648 13.8227C108.802 13.8225 108.949 13.8895 109.049 14.006C109.149 14.1225 109.193 14.2768 109.169 14.4284L107.536 24.7362C107.468 25.1619 107.1 25.4741 106.669 25.4741H103.951C103.797 25.4744 103.651 25.4073 103.552 25.2907C103.452 25.1741 103.408 25.0197 103.433 24.8684L103.568 24.0316C103.568 24.0316 102.077 25.7538 99.3861 25.7538C97.8192 25.7538 96.5044 25.3038 95.5831 24.223C94.5797 23.0465 94.1691 21.3608 94.4578 19.5957C95.0131 16.0605 97.8631 13.5389 101.199 13.5389C102.654 13.5389 104.112 13.8559 104.766 14.8022L104.977 15.107L105.109 14.2654C105.149 14.0099 105.37 13.8216 105.629 13.8219ZM101.032 22.56C102.779 22.56 104.148 21.4046 104.441 19.6841C104.573 18.8514 104.391 18.0957 103.928 17.5549C103.468 17.0181 102.773 16.7343 101.915 16.7343C100.194 16.7343 98.8023 17.9262 98.5307 19.6322C98.3892 20.4681 98.5567 21.2197 99.004 21.7468C99.4544 22.2786 100.156 22.56 101.032 22.56Z" fill="#009CDE"/>
<path d="M79.7515 13.8227H76.7153C76.425 13.8227 76.1543 13.9662 75.9916 14.2062L71.804 20.3554L70.029 14.4462C69.9178 14.0761 69.5765 13.8225 69.189 13.8219H66.2057C66.0359 13.822 65.8767 13.9037 65.7779 14.0414C65.6792 14.1791 65.6532 14.3558 65.708 14.516L69.05 24.2992L65.9064 28.7222C65.7932 28.8822 65.7788 29.0918 65.8691 29.2658C65.9594 29.4397 66.1393 29.549 66.3358 29.5492H69.3687C69.6549 29.5492 69.9241 29.4089 70.0883 29.1738L80.1825 14.6457C80.2942 14.4856 80.3075 14.2769 80.217 14.1041C80.1264 13.9312 79.9471 13.8228 79.7515 13.8227Z" fill="#003087"/>
<path d="M112.208 8.44859L109.619 24.8683C109.596 25.0197 109.639 25.1739 109.739 25.2904C109.839 25.4069 109.985 25.4739 110.139 25.474H112.742C113.173 25.474 113.54 25.161 113.608 24.7362L116.16 8.61076C116.184 8.45929 116.14 8.30492 116.041 8.18839C115.941 8.07185 115.794 8.00485 115.641 8.00508H112.728C112.469 8.00442 112.248 8.1925 112.208 8.44778" fill="#009CDE"/>
<path d="M21.482 2.44704C20.1208 0.900013 17.6603 0.236771 14.5127 0.236771H5.37719C4.73347 0.236429 4.18514 0.70307 4.08432 1.33704L0.282136 25.3946C0.246457 25.6205 0.311747 25.8506 0.460806 26.0243C0.609866 26.1981 0.827746 26.298 1.05705 26.2979H6.6969L8.11337 17.3392L8.06946 17.6197C8.16835 16.987 8.71444 16.5202 9.35664 16.5195H12.0367C17.3017 16.5195 21.4243 14.387 22.6285 8.21839C22.6643 8.03596 22.6952 7.85839 22.722 7.68488C23.0798 5.40488 22.7196 3.85299 21.4828 2.44785" fill="#003087"/>
<path d="M9.63475 7.71483C9.72304 7.16094 10.2017 6.75302 10.7642 6.7524L17.9262 6.7524C18.7743 6.7524 19.5655 6.80754 20.2883 6.92267C20.6836 6.98607 21.0746 7.07326 21.4593 7.18375C21.8961 7.30622 22.3188 7.47417 22.7204 7.68484C23.0798 5.40402 22.7188 3.85294 21.482 2.447C20.12 0.90078 17.6603 0.237537 14.5127 0.237537H5.37641C4.7333 0.237993 4.18588 0.704445 4.08516 1.33781L0.281349 25.3929C0.245428 25.6188 0.310493 25.849 0.459401 26.0229C0.608308 26.1968 0.826121 26.297 1.05545 26.297H6.69611L8.11258 17.3375L9.63475 7.71483Z" fill="#003087"/>
<path d="M22.7212 7.68406C22.6933 7.86245 22.6621 8.04032 22.6277 8.21757C21.4235 14.3854 17.3009 16.5187 12.0359 16.5187H9.35504C8.71289 16.5191 8.16688 16.9861 8.06867 17.6189L6.69611 26.2962L6.30581 28.7578C6.27441 28.9556 6.33145 29.1572 6.46191 29.3094C6.59236 29.4617 6.78315 29.5493 6.98396 29.5492H11.7383C12.301 29.5492 12.7791 29.1405 12.8678 28.5868L12.9141 28.3451L13.8102 22.6824L13.8671 22.3695C13.9551 21.8151 14.4344 21.4069 14.9973 21.407H15.7088C20.3144 21.407 23.9206 19.5422 24.9744 14.1454C25.4135 11.8914 25.1858 10.0078 24.023 8.68541C23.6538 8.27541 23.2127 7.93607 22.7212 7.68406Z" fill="#009CDE"/>
<path d="M21.4601 7.18376C21.2763 7.12944 21.0868 7.08079 20.8917 7.03782C20.6965 6.99484 20.4949 6.95673 20.2883 6.9243C19.5647 6.80673 18.7743 6.7516 17.9254 6.7516L10.7642 6.7516C10.201 6.75091 9.7214 7.15991 9.63475 7.71484L8.11257 17.3392L8.06866 17.6189C8.16687 16.9861 8.71289 16.5191 9.35503 16.5186H12.0359C17.3009 16.5186 21.4235 14.3862 22.6277 8.21755C22.6635 8.03511 22.6936 7.85836 22.7212 7.68403C22.4032 7.5181 22.0719 7.3787 21.7308 7.26727C21.6422 7.23809 21.5519 7.21052 21.4601 7.18295" fill="#012169"/>
</svg>
