<svg width="56" height="18" viewBox="0 0 56 18" fill="none" xmlns="http://www.w3.org/2000/svg">
<path fill-rule="evenodd" clip-rule="evenodd" d="M39.5899 4.49244L40.2337 0.758198C40.2337 0.758198 38.2472 0 36.1763 0C33.9376 0 28.6213 0.981936 28.6213 5.75673C28.6213 8.36141 30.7188 9.47469 32.4816 10.4103C33.7591 11.0884 34.8609 11.6731 34.8609 12.6647C34.8609 15.0244 29.2642 14.6016 27.4171 13.1136L26.7465 17.0181C26.7465 17.0181 28.7608 18 31.8384 18C34.917 18 39.5612 16.4003 39.5612 12.0465C39.5612 9.32182 37.2748 8.08625 35.4577 7.10431C34.2596 6.45684 33.2655 5.91965 33.2655 5.13854C33.266 3.17234 37.6595 3.42492 39.5899 4.49244ZM51.1435 17.7H55.2857L51.6742 0.310257H48.0478C46.3732 0.310257 45.9653 1.60617 45.9653 1.60617L39.2372 17.7H43.9398L44.8802 15.117H50.6151L51.1435 17.7ZM11.3598 12.2712L15.6606 0.310722H20.5157L13.3385 17.7004H8.63816L4.71885 2.59276C2.17426 1.05915 0 0.605163 0 0.605163L0.000124443 0.604724C4.15312e-05 0.604707 0 0.604698 0 0.604698L0.0834291 0.310257H7.19345C9.14986 0.310257 9.3334 1.87596 9.3334 1.87596L10.8514 9.6961C10.8514 9.6961 10.8513 9.69587 10.8511 9.69541L10.8514 9.69657L10.8509 9.69563L11.3598 12.2712ZM19.4557 17.7H23.9669L26.7868 0.310722H22.2751L19.4557 17.7ZM48.5497 5.04132L46.1794 11.5488H49.8832L48.5497 5.04132Z" fill="#141E6B"/>
</svg>
